ISO-10303-21;
HEADER;
FILE_DESCRIPTION(('FreeCAD Model'),'2;1');
FILE_NAME('Open CASCADE Shape Model','2025-11-14T17:04:04',(''),(''),
  'Open CASCADE STEP processor 7.9','FreeCAD','Unknown');
FILE_SCHEMA(('AUTOMOTIVE_DESIGN { 1 0 10303 214 1 1 1 1 }'));
ENDSEC;
DATA;
#1 = APPLICATION_PROTOCOL_DEFINITION('international standard',
  'automotive_design',2000,#2);
#2 = APPLICATION_CONTEXT(
  'core data for automotive mechanical design processes');
#3 = SHAPE_DEFINITION_REPRESENTATION(#4,#10);
#4 = PRODUCT_DEFINITION_SHAPE('','',#5);
#5 = PRODUCT_DEFINITION('design','',#6,#9);
#6 = PRODUCT_DEFINITION_FORMATION('','',#7);
#7 = PRODUCT('disk10d','disk10d','',(#8));
#8 = PRODUCT_CONTEXT('',#2,'mechanical');
#9 = PRODUCT_DEFINITION_CONTEXT('part definition',#2,'design');
#10 = ADVANCED_BREP_SHAPE_REPRESENTATION('',(#11,#15),#977);
#11 = AXIS2_PLACEMENT_3D('',#12,#13,#14);
#12 = CARTESIAN_POINT('',(0.,0.,0.));
#13 = DIRECTION('',(0.,0.,1.));
#14 = DIRECTION('',(1.,0.,-0.));
#15 = MANIFOLD_SOLID_BREP('',#16);
#16 = CLOSED_SHELL('',(#17,#57,#88,#119,#150,#181,#214,#245,#276,#307,
    #338,#369,#400,#433,#455,#495,#526,#557,#588,#619,#650,#681,#712,
    #743,#774,#805,#827,#860,#893,#935));
#17 = ADVANCED_FACE('',(#18),#52,.F.);
#18 = FACE_BOUND('',#19,.F.);
#19 = EDGE_LOOP('',(#20,#30,#38,#46));
#20 = ORIENTED_EDGE('',*,*,#21,.T.);
#21 = EDGE_CURVE('',#22,#24,#26,.T.);
#22 = VERTEX_POINT('',#23);
#23 = CARTESIAN_POINT('',(5.000000000001,-10.89853903577,0.));
#24 = VERTEX_POINT('',#25);
#25 = CARTESIAN_POINT('',(5.000000000001,-10.89853903577,4.));
#26 = LINE('',#27,#28);
#27 = CARTESIAN_POINT('',(5.000000000001,-10.89853903577,0.));
#28 = VECTOR('',#29,1.);
#29 = DIRECTION('',(0.,0.,1.));
#30 = ORIENTED_EDGE('',*,*,#31,.T.);
#31 = EDGE_CURVE('',#24,#32,#34,.T.);
#32 = VERTEX_POINT('',#33);
#33 = CARTESIAN_POINT('',(23.016912248333,-13.37382462559,4.));
#34 = LINE('',#35,#36);
#35 = CARTESIAN_POINT('',(5.000000000001,-10.89853903577,4.));
#36 = VECTOR('',#37,1.);
#37 = DIRECTION('',(0.990693970201,-0.136108256207,0.));
#38 = ORIENTED_EDGE('',*,*,#39,.F.);
#39 = EDGE_CURVE('',#40,#32,#42,.T.);
#40 = VERTEX_POINT('',#41);
#41 = CARTESIAN_POINT('',(23.016912248333,-13.37382462559,0.));
#42 = LINE('',#43,#44);
#43 = CARTESIAN_POINT('',(23.016912248333,-13.37382462559,0.));
#44 = VECTOR('',#45,1.);
#45 = DIRECTION('',(0.,0.,1.));
#46 = ORIENTED_EDGE('',*,*,#47,.F.);
#47 = EDGE_CURVE('',#22,#40,#48,.T.);
#48 = LINE('',#49,#50);
#49 = CARTESIAN_POINT('',(5.000000000001,-10.89853903577,0.));
#50 = VECTOR('',#51,1.);
#51 = DIRECTION('',(0.990693970201,-0.136108256207,0.));
#52 = PLANE('',#53);
#53 = AXIS2_PLACEMENT_3D('',#54,#55,#56);
#54 = CARTESIAN_POINT('',(5.000000000001,-10.89853903577,0.));
#55 = DIRECTION('',(0.136108256207,0.990693970201,0.));
#56 = DIRECTION('',(0.990693970201,-0.136108256207,0.));
#57 = ADVANCED_FACE('',(#58),#83,.F.);
#58 = FACE_BOUND('',#59,.F.);
#59 = EDGE_LOOP('',(#60,#61,#69,#77));
#60 = ORIENTED_EDGE('',*,*,#39,.T.);
#61 = ORIENTED_EDGE('',*,*,#62,.T.);
#62 = EDGE_CURVE('',#32,#63,#65,.T.);
#63 = VERTEX_POINT('',#64);
#64 = CARTESIAN_POINT('',(10.7,-1.E-15,4.));
#65 = LINE('',#66,#67);
#66 = CARTESIAN_POINT('',(23.016912248333,-13.37382462559,4.));
#67 = VECTOR('',#68,1.);
#68 = DIRECTION('',(-0.677443493968,0.735574817731,0.));
#69 = ORIENTED_EDGE('',*,*,#70,.F.);
#70 = EDGE_CURVE('',#71,#63,#73,.T.);
#71 = VERTEX_POINT('',#72);
#72 = CARTESIAN_POINT('',(10.7,-1.E-15,0.));
#73 = LINE('',#74,#75);
#74 = CARTESIAN_POINT('',(10.7,-9.3E-16,0.));
#75 = VECTOR('',#76,1.);
#76 = DIRECTION('',(0.,0.,1.));
#77 = ORIENTED_EDGE('',*,*,#78,.F.);
#78 = EDGE_CURVE('',#40,#71,#79,.T.);
#79 = LINE('',#80,#81);
#80 = CARTESIAN_POINT('',(23.016912248333,-13.37382462559,0.));
#81 = VECTOR('',#82,1.);
#82 = DIRECTION('',(-0.677443493968,0.735574817731,0.));
#83 = PLANE('',#84);
#84 = AXIS2_PLACEMENT_3D('',#85,#86,#87);
#85 = CARTESIAN_POINT('',(23.016912248333,-13.37382462559,0.));
#86 = DIRECTION('',(-0.735574817731,-0.677443493968,0.));
#87 = DIRECTION('',(-0.677443493968,0.735574817731,0.));
#88 = ADVANCED_FACE('',(#89),#114,.F.);
#89 = FACE_BOUND('',#90,.F.);
#90 = EDGE_LOOP('',(#91,#92,#100,#108));
#91 = ORIENTED_EDGE('',*,*,#70,.T.);
#92 = ORIENTED_EDGE('',*,*,#93,.T.);
#93 = EDGE_CURVE('',#63,#94,#96,.T.);
#94 = VERTEX_POINT('',#95);
#95 = CARTESIAN_POINT('',(23.499999999994,13.626175374424,4.));
#96 = LINE('',#97,#98);
#97 = CARTESIAN_POINT('',(10.7,-9.3E-16,4.));
#98 = VECTOR('',#99,1.);
#99 = DIRECTION('',(0.684665614105,0.728857322706,0.));
#100 = ORIENTED_EDGE('',*,*,#101,.F.);
#101 = EDGE_CURVE('',#102,#94,#104,.T.);
#102 = VERTEX_POINT('',#103);
#103 = CARTESIAN_POINT('',(23.499999999994,13.626175374424,0.));
#104 = LINE('',#105,#106);
#105 = CARTESIAN_POINT('',(23.499999999994,13.626175374424,0.));
#106 = VECTOR('',#107,1.);
#107 = DIRECTION('',(0.,0.,1.));
#108 = ORIENTED_EDGE('',*,*,#109,.F.);
#109 = EDGE_CURVE('',#71,#102,#110,.T.);
#110 = LINE('',#111,#112);
#111 = CARTESIAN_POINT('',(10.7,-9.3E-16,0.));
#112 = VECTOR('',#113,1.);
#113 = DIRECTION('',(0.684665614105,0.728857322706,0.));
#114 = PLANE('',#115);
#115 = AXIS2_PLACEMENT_3D('',#116,#117,#118);
#116 = CARTESIAN_POINT('',(10.7,-9.3E-16,0.));
#117 = DIRECTION('',(-0.728857322706,0.684665614105,0.));
#118 = DIRECTION('',(0.684665614105,0.728857322706,0.));
#119 = ADVANCED_FACE('',(#120),#145,.F.);
#120 = FACE_BOUND('',#121,.F.);
#121 = EDGE_LOOP('',(#122,#123,#131,#139));
#122 = ORIENTED_EDGE('',*,*,#101,.T.);
#123 = ORIENTED_EDGE('',*,*,#124,.T.);
#124 = EDGE_CURVE('',#94,#125,#127,.T.);
#125 = VERTEX_POINT('',#126);
#126 = CARTESIAN_POINT('',(4.999999999973,10.898539035767,4.));
#127 = LINE('',#128,#129);
#128 = CARTESIAN_POINT('',(23.499999999994,13.626175374424,4.));
#129 = VECTOR('',#130,1.);
#130 = DIRECTION('',(-0.98930481284,-0.145862905811,0.));
#131 = ORIENTED_EDGE('',*,*,#132,.F.);
#132 = EDGE_CURVE('',#133,#125,#135,.T.);
#133 = VERTEX_POINT('',#134);
#134 = CARTESIAN_POINT('',(4.999999999973,10.898539035767,0.));
#135 = LINE('',#136,#137);
#136 = CARTESIAN_POINT('',(4.999999999973,10.898539035767,0.));
#137 = VECTOR('',#138,1.);
#138 = DIRECTION('',(0.,0.,1.));
#139 = ORIENTED_EDGE('',*,*,#140,.F.);
#140 = EDGE_CURVE('',#102,#133,#141,.T.);
#141 = LINE('',#142,#143);
#142 = CARTESIAN_POINT('',(23.499999999994,13.626175374424,0.));
#143 = VECTOR('',#144,1.);
#144 = DIRECTION('',(-0.98930481284,-0.145862905811,0.));
#145 = PLANE('',#146);
#146 = AXIS2_PLACEMENT_3D('',#147,#148,#149);
#147 = CARTESIAN_POINT('',(23.499999999994,13.626175374424,0.));
#148 = DIRECTION('',(0.145862905811,-0.98930481284,0.));
#149 = DIRECTION('',(-0.98930481284,-0.145862905811,0.));
#150 = ADVANCED_FACE('',(#151),#176,.F.);
#151 = FACE_BOUND('',#152,.F.);
#152 = EDGE_LOOP('',(#153,#154,#162,#170));
#153 = ORIENTED_EDGE('',*,*,#132,.T.);
#154 = ORIENTED_EDGE('',*,*,#155,.T.);
#155 = EDGE_CURVE('',#125,#156,#158,.T.);
#156 = VERTEX_POINT('',#157);
#157 = CARTESIAN_POINT('',(4.999999999973,44.999999999999,4.));
#158 = LINE('',#159,#160);
#159 = CARTESIAN_POINT('',(4.999999999973,10.898539035767,4.));
#160 = VECTOR('',#161,1.);
#161 = DIRECTION('',(0.,1.,0.));
#162 = ORIENTED_EDGE('',*,*,#163,.F.);
#163 = EDGE_CURVE('',#164,#156,#166,.T.);
#164 = VERTEX_POINT('',#165);
#165 = CARTESIAN_POINT('',(4.999999999973,44.999999999999,0.));
#166 = LINE('',#167,#168);
#167 = CARTESIAN_POINT('',(4.999999999973,44.999999999999,0.));
#168 = VECTOR('',#169,1.);
#169 = DIRECTION('',(0.,0.,1.));
#170 = ORIENTED_EDGE('',*,*,#171,.F.);
#171 = EDGE_CURVE('',#133,#164,#172,.T.);
#172 = LINE('',#173,#174);
#173 = CARTESIAN_POINT('',(4.999999999973,10.898539035767,0.));
#174 = VECTOR('',#175,1.);
#175 = DIRECTION('',(0.,1.,0.));
#176 = PLANE('',#177);
#177 = AXIS2_PLACEMENT_3D('',#178,#179,#180);
#178 = CARTESIAN_POINT('',(4.999999999973,10.898539035767,0.));
#179 = DIRECTION('',(-1.,0.,0.));
#180 = DIRECTION('',(0.,1.,0.));
#181 = ADVANCED_FACE('',(#182),#209,.T.);
#182 = FACE_BOUND('',#183,.F.);
#183 = EDGE_LOOP('',(#184,#185,#194,#202));
#184 = ORIENTED_EDGE('',*,*,#163,.T.);
#185 = ORIENTED_EDGE('',*,*,#186,.T.);
#186 = EDGE_CURVE('',#156,#187,#189,.T.);
#187 = VERTEX_POINT('',#188);
#188 = CARTESIAN_POINT('',(-4.999999999991,44.999999999999,4.));
#189 = CIRCLE('',#190,4.999999999982);
#190 = AXIS2_PLACEMENT_3D('',#191,#192,#193);
#191 = CARTESIAN_POINT('',(-9.0048E-12,44.999999999999,4.));
#192 = DIRECTION('',(0.,0.,1.));
#193 = DIRECTION('',(1.,0.,0.));
#194 = ORIENTED_EDGE('',*,*,#195,.F.);
#195 = EDGE_CURVE('',#196,#187,#198,.T.);
#196 = VERTEX_POINT('',#197);
#197 = CARTESIAN_POINT('',(-4.999999999991,44.999999999999,0.));
#198 = LINE('',#199,#200);
#199 = CARTESIAN_POINT('',(-4.999999999991,44.999999999999,0.));
#200 = VECTOR('',#201,1.);
#201 = DIRECTION('',(0.,0.,1.));
#202 = ORIENTED_EDGE('',*,*,#203,.F.);
#203 = EDGE_CURVE('',#164,#196,#204,.T.);
#204 = CIRCLE('',#205,4.999999999982);
#205 = AXIS2_PLACEMENT_3D('',#206,#207,#208);
#206 = CARTESIAN_POINT('',(-9.0048E-12,44.999999999999,0.));
#207 = DIRECTION('',(0.,0.,1.));
#208 = DIRECTION('',(1.,0.,0.));
#209 = CYLINDRICAL_SURFACE('',#210,4.999999999982);
#210 = AXIS2_PLACEMENT_3D('',#211,#212,#213);
#211 = CARTESIAN_POINT('',(-9.0048E-12,44.999999999999,0.));
#212 = DIRECTION('',(-0.,-0.,-1.));
#213 = DIRECTION('',(1.,0.,0.));
#214 = ADVANCED_FACE('',(#215),#240,.F.);
#215 = FACE_BOUND('',#216,.F.);
#216 = EDGE_LOOP('',(#217,#218,#226,#234));
#217 = ORIENTED_EDGE('',*,*,#195,.T.);
#218 = ORIENTED_EDGE('',*,*,#219,.T.);
#219 = EDGE_CURVE('',#187,#220,#222,.T.);
#220 = VERTEX_POINT('',#221);
#221 = CARTESIAN_POINT('',(-4.999999999928,10.898539035767,4.));
#222 = LINE('',#223,#224);
#223 = CARTESIAN_POINT('',(-4.999999999991,44.999999999999,4.));
#224 = VECTOR('',#225,1.);
#225 = DIRECTION('',(1.8465E-12,-1.,0.));
#226 = ORIENTED_EDGE('',*,*,#227,.F.);
#227 = EDGE_CURVE('',#228,#220,#230,.T.);
#228 = VERTEX_POINT('',#229);
#229 = CARTESIAN_POINT('',(-4.999999999928,10.898539035767,0.));
#230 = LINE('',#231,#232);
#231 = CARTESIAN_POINT('',(-4.999999999928,10.898539035767,0.));
#232 = VECTOR('',#233,1.);
#233 = DIRECTION('',(0.,0.,1.));
#234 = ORIENTED_EDGE('',*,*,#235,.F.);
#235 = EDGE_CURVE('',#196,#228,#236,.T.);
#236 = LINE('',#237,#238);
#237 = CARTESIAN_POINT('',(-4.999999999991,44.999999999999,0.));
#238 = VECTOR('',#239,1.);
#239 = DIRECTION('',(1.8465E-12,-1.,0.));
#240 = PLANE('',#241);
#241 = AXIS2_PLACEMENT_3D('',#242,#243,#244);
#242 = CARTESIAN_POINT('',(-4.999999999991,44.999999999999,0.));
#243 = DIRECTION('',(1.,1.8465E-12,0.));
#244 = DIRECTION('',(1.8465E-12,-1.,0.));
#245 = ADVANCED_FACE('',(#246),#271,.F.);
#246 = FACE_BOUND('',#247,.F.);
#247 = EDGE_LOOP('',(#248,#249,#257,#265));
#248 = ORIENTED_EDGE('',*,*,#227,.T.);
#249 = ORIENTED_EDGE('',*,*,#250,.T.);
#250 = EDGE_CURVE('',#220,#251,#253,.T.);
#251 = VERTEX_POINT('',#252);
#252 = CARTESIAN_POINT('',(-23.50000000001,13.626175374488,4.));
#253 = LINE('',#254,#255);
#254 = CARTESIAN_POINT('',(-4.999999999928,10.898539035767,4.));
#255 = VECTOR('',#256,1.);
#256 = DIRECTION('',(-0.98930481284,0.145862905814,0.));
#257 = ORIENTED_EDGE('',*,*,#258,.F.);
#258 = EDGE_CURVE('',#259,#251,#261,.T.);
#259 = VERTEX_POINT('',#260);
#260 = CARTESIAN_POINT('',(-23.50000000001,13.626175374488,0.));
#261 = LINE('',#262,#263);
#262 = CARTESIAN_POINT('',(-23.50000000001,13.626175374488,0.));
#263 = VECTOR('',#264,1.);
#264 = DIRECTION('',(0.,0.,1.));
#265 = ORIENTED_EDGE('',*,*,#266,.F.);
#266 = EDGE_CURVE('',#228,#259,#267,.T.);
#267 = LINE('',#268,#269);
#268 = CARTESIAN_POINT('',(-4.999999999928,10.898539035767,0.));
#269 = VECTOR('',#270,1.);
#270 = DIRECTION('',(-0.98930481284,0.145862905814,0.));
#271 = PLANE('',#272);
#272 = AXIS2_PLACEMENT_3D('',#273,#274,#275);
#273 = CARTESIAN_POINT('',(-4.999999999928,10.898539035767,0.));
#274 = DIRECTION('',(-0.145862905814,-0.98930481284,0.));
#275 = DIRECTION('',(-0.98930481284,0.145862905814,0.));
#276 = ADVANCED_FACE('',(#277),#302,.F.);
#277 = FACE_BOUND('',#278,.F.);
#278 = EDGE_LOOP('',(#279,#280,#288,#296));
#279 = ORIENTED_EDGE('',*,*,#258,.T.);
#280 = ORIENTED_EDGE('',*,*,#281,.T.);
#281 = EDGE_CURVE('',#251,#282,#284,.T.);
#282 = VERTEX_POINT('',#283);
#283 = CARTESIAN_POINT('',(-10.69307434771,1.373E-12,4.));
#284 = LINE('',#285,#286);
#285 = CARTESIAN_POINT('',(-23.50000000001,13.626175374488,4.));
#286 = VECTOR('',#287,1.);
#287 = DIRECTION('',(0.684862334348,-0.728672479919,0.));
#288 = ORIENTED_EDGE('',*,*,#289,.F.);
#289 = EDGE_CURVE('',#290,#282,#292,.T.);
#290 = VERTEX_POINT('',#291);
#291 = CARTESIAN_POINT('',(-10.69307434771,1.373E-12,0.));
#292 = LINE('',#293,#294);
#293 = CARTESIAN_POINT('',(-10.69307434771,1.37306E-12,0.));
#294 = VECTOR('',#295,1.);
#295 = DIRECTION('',(0.,0.,1.));
#296 = ORIENTED_EDGE('',*,*,#297,.F.);
#297 = EDGE_CURVE('',#259,#290,#298,.T.);
#298 = LINE('',#299,#300);
#299 = CARTESIAN_POINT('',(-23.50000000001,13.626175374488,0.));
#300 = VECTOR('',#301,1.);
#301 = DIRECTION('',(0.684862334348,-0.728672479919,0.));
#302 = PLANE('',#303);
#303 = AXIS2_PLACEMENT_3D('',#304,#305,#306);
#304 = CARTESIAN_POINT('',(-23.50000000001,13.626175374488,0.));
#305 = DIRECTION('',(0.728672479919,0.684862334348,0.));
#306 = DIRECTION('',(0.684862334348,-0.728672479919,0.));
#307 = ADVANCED_FACE('',(#308),#333,.F.);
#308 = FACE_BOUND('',#309,.F.);
#309 = EDGE_LOOP('',(#310,#311,#319,#327));
#310 = ORIENTED_EDGE('',*,*,#289,.T.);
#311 = ORIENTED_EDGE('',*,*,#312,.T.);
#312 = EDGE_CURVE('',#282,#313,#315,.T.);
#313 = VERTEX_POINT('',#314);
#314 = CARTESIAN_POINT('',(-23.01691224833,-13.37382462551,4.));
#315 = LINE('',#316,#317);
#316 = CARTESIAN_POINT('',(-10.69307434771,1.37238E-12,4.));
#317 = VECTOR('',#318,1.);
#318 = DIRECTION('',(-0.677649517831,-0.735385022273,0.));
#319 = ORIENTED_EDGE('',*,*,#320,.F.);
#320 = EDGE_CURVE('',#321,#313,#323,.T.);
#321 = VERTEX_POINT('',#322);
#322 = CARTESIAN_POINT('',(-23.01691224833,-13.37382462551,0.));
#323 = LINE('',#324,#325);
#324 = CARTESIAN_POINT('',(-23.01691224833,-13.37382462551,0.));
#325 = VECTOR('',#326,1.);
#326 = DIRECTION('',(0.,0.,1.));
#327 = ORIENTED_EDGE('',*,*,#328,.F.);
#328 = EDGE_CURVE('',#290,#321,#329,.T.);
#329 = LINE('',#330,#331);
#330 = CARTESIAN_POINT('',(-10.69307434771,1.37238E-12,0.));
#331 = VECTOR('',#332,1.);
#332 = DIRECTION('',(-0.677649517831,-0.735385022273,0.));
#333 = PLANE('',#334);
#334 = AXIS2_PLACEMENT_3D('',#335,#336,#337);
#335 = CARTESIAN_POINT('',(-10.69307434771,1.37238E-12,0.));
#336 = DIRECTION('',(0.735385022273,-0.677649517831,0.));
#337 = DIRECTION('',(-0.677649517831,-0.735385022273,0.));
#338 = ADVANCED_FACE('',(#339),#364,.F.);
#339 = FACE_BOUND('',#340,.F.);
#340 = EDGE_LOOP('',(#341,#342,#350,#358));
#341 = ORIENTED_EDGE('',*,*,#320,.T.);
#342 = ORIENTED_EDGE('',*,*,#343,.T.);
#343 = EDGE_CURVE('',#313,#344,#346,.T.);
#344 = VERTEX_POINT('',#345);
#345 = CARTESIAN_POINT('',(-5.000000000004,-10.89853903576,4.));
#346 = LINE('',#347,#348);
#347 = CARTESIAN_POINT('',(-23.01691224833,-13.37382462551,4.));
#348 = VECTOR('',#349,1.);
#349 = DIRECTION('',(0.990693970201,0.136108256203,0.));
#350 = ORIENTED_EDGE('',*,*,#351,.F.);
#351 = EDGE_CURVE('',#352,#344,#354,.T.);
#352 = VERTEX_POINT('',#353);
#353 = CARTESIAN_POINT('',(-5.000000000004,-10.89853903576,0.));
#354 = LINE('',#355,#356);
#355 = CARTESIAN_POINT('',(-5.000000000004,-10.89853903576,0.));
#356 = VECTOR('',#357,1.);
#357 = DIRECTION('',(0.,0.,1.));
#358 = ORIENTED_EDGE('',*,*,#359,.F.);
#359 = EDGE_CURVE('',#321,#352,#360,.T.);
#360 = LINE('',#361,#362);
#361 = CARTESIAN_POINT('',(-23.01691224833,-13.37382462551,0.));
#362 = VECTOR('',#363,1.);
#363 = DIRECTION('',(0.990693970201,0.136108256203,0.));
#364 = PLANE('',#365);
#365 = AXIS2_PLACEMENT_3D('',#366,#367,#368);
#366 = CARTESIAN_POINT('',(-23.01691224833,-13.37382462551,0.));
#367 = DIRECTION('',(-0.136108256203,0.990693970201,0.));
#368 = DIRECTION('',(0.990693970201,0.136108256203,0.));
#369 = ADVANCED_FACE('',(#370),#395,.F.);
#370 = FACE_BOUND('',#371,.F.);
#371 = EDGE_LOOP('',(#372,#373,#381,#389));
#372 = ORIENTED_EDGE('',*,*,#351,.T.);
#373 = ORIENTED_EDGE('',*,*,#374,.T.);
#374 = EDGE_CURVE('',#344,#375,#377,.T.);
#375 = VERTEX_POINT('',#376);
#376 = CARTESIAN_POINT('',(-5.000000000003,-45.,4.));
#377 = LINE('',#378,#379);
#378 = CARTESIAN_POINT('',(-5.000000000004,-10.89853903576,4.));
#379 = VECTOR('',#380,1.);
#380 = DIRECTION('',(0.,-1.,0.));
#381 = ORIENTED_EDGE('',*,*,#382,.F.);
#382 = EDGE_CURVE('',#383,#375,#385,.T.);
#383 = VERTEX_POINT('',#384);
#384 = CARTESIAN_POINT('',(-5.000000000003,-45.,0.));
#385 = LINE('',#386,#387);
#386 = CARTESIAN_POINT('',(-5.000000000003,-45.,0.));
#387 = VECTOR('',#388,1.);
#388 = DIRECTION('',(0.,0.,1.));
#389 = ORIENTED_EDGE('',*,*,#390,.F.);
#390 = EDGE_CURVE('',#352,#383,#391,.T.);
#391 = LINE('',#392,#393);
#392 = CARTESIAN_POINT('',(-5.000000000004,-10.89853903576,0.));
#393 = VECTOR('',#394,1.);
#394 = DIRECTION('',(0.,-1.,0.));
#395 = PLANE('',#396);
#396 = AXIS2_PLACEMENT_3D('',#397,#398,#399);
#397 = CARTESIAN_POINT('',(-5.000000000004,-10.89853903576,0.));
#398 = DIRECTION('',(1.,0.,0.));
#399 = DIRECTION('',(0.,-1.,0.));
#400 = ADVANCED_FACE('',(#401),#428,.T.);
#401 = FACE_BOUND('',#402,.F.);
#402 = EDGE_LOOP('',(#403,#404,#413,#421));
#403 = ORIENTED_EDGE('',*,*,#382,.T.);
#404 = ORIENTED_EDGE('',*,*,#405,.T.);
#405 = EDGE_CURVE('',#375,#406,#408,.T.);
#406 = VERTEX_POINT('',#407);
#407 = CARTESIAN_POINT('',(5.000000000001,-45.,4.));
#408 = CIRCLE('',#409,5.000000000002);
#409 = AXIS2_PLACEMENT_3D('',#410,#411,#412);
#410 = CARTESIAN_POINT('',(-9.3629E-13,-45.,4.));
#411 = DIRECTION('',(0.,0.,1.));
#412 = DIRECTION('',(1.,0.,0.));
#413 = ORIENTED_EDGE('',*,*,#414,.F.);
#414 = EDGE_CURVE('',#415,#406,#417,.T.);
#415 = VERTEX_POINT('',#416);
#416 = CARTESIAN_POINT('',(5.000000000001,-45.,0.));
#417 = LINE('',#418,#419);
#418 = CARTESIAN_POINT('',(5.000000000001,-45.,0.));
#419 = VECTOR('',#420,1.);
#420 = DIRECTION('',(0.,0.,1.));
#421 = ORIENTED_EDGE('',*,*,#422,.F.);
#422 = EDGE_CURVE('',#383,#415,#423,.T.);
#423 = CIRCLE('',#424,5.000000000002);
#424 = AXIS2_PLACEMENT_3D('',#425,#426,#427);
#425 = CARTESIAN_POINT('',(-9.3629E-13,-45.,0.));
#426 = DIRECTION('',(0.,0.,1.));
#427 = DIRECTION('',(1.,0.,0.));
#428 = CYLINDRICAL_SURFACE('',#429,5.000000000002);
#429 = AXIS2_PLACEMENT_3D('',#430,#431,#432);
#430 = CARTESIAN_POINT('',(-9.3629E-13,-45.,0.));
#431 = DIRECTION('',(-0.,-0.,-1.));
#432 = DIRECTION('',(1.,0.,0.));
#433 = ADVANCED_FACE('',(#434),#450,.T.);
#434 = FACE_BOUND('',#435,.T.);
#435 = EDGE_LOOP('',(#436,#437,#443,#444));
#436 = ORIENTED_EDGE('',*,*,#21,.T.);
#437 = ORIENTED_EDGE('',*,*,#438,.T.);
#438 = EDGE_CURVE('',#24,#406,#439,.T.);
#439 = LINE('',#440,#441);
#440 = CARTESIAN_POINT('',(5.000000000001,-10.89853903577,4.));
#441 = VECTOR('',#442,1.);
#442 = DIRECTION('',(0.,-1.,0.));
#443 = ORIENTED_EDGE('',*,*,#414,.F.);
#444 = ORIENTED_EDGE('',*,*,#445,.F.);
#445 = EDGE_CURVE('',#22,#415,#446,.T.);
#446 = LINE('',#447,#448);
#447 = CARTESIAN_POINT('',(5.000000000001,-10.89853903577,0.));
#448 = VECTOR('',#449,1.);
#449 = DIRECTION('',(0.,-1.,0.));
#450 = PLANE('',#451);
#451 = AXIS2_PLACEMENT_3D('',#452,#453,#454);
#452 = CARTESIAN_POINT('',(5.000000000001,-10.89853903577,0.));
#453 = DIRECTION('',(1.,0.,0.));
#454 = DIRECTION('',(0.,-1.,0.));
#455 = ADVANCED_FACE('',(#456),#490,.T.);
#456 = FACE_BOUND('',#457,.T.);
#457 = EDGE_LOOP('',(#458,#468,#476,#484));
#458 = ORIENTED_EDGE('',*,*,#459,.T.);
#459 = EDGE_CURVE('',#460,#462,#464,.T.);
#460 = VERTEX_POINT('',#461);
#461 = CARTESIAN_POINT('',(3.75,6.495190528383,0.));
#462 = VERTEX_POINT('',#463);
#463 = CARTESIAN_POINT('',(3.75,6.495190528383,4.));
#464 = LINE('',#465,#466);
#465 = CARTESIAN_POINT('',(3.75,6.495190528383,0.));
#466 = VECTOR('',#467,1.);
#467 = DIRECTION('',(0.,0.,1.));
#468 = ORIENTED_EDGE('',*,*,#469,.T.);
#469 = EDGE_CURVE('',#462,#470,#472,.T.);
#470 = VERTEX_POINT('',#471);
#471 = CARTESIAN_POINT('',(0.,23.05608216237,4.));
#472 = LINE('',#473,#474);
#473 = CARTESIAN_POINT('',(3.75,6.495190528383,4.));
#474 = VECTOR('',#475,1.);
#475 = DIRECTION('',(-0.220846052867,0.97530867982,0.));
#476 = ORIENTED_EDGE('',*,*,#477,.F.);
#477 = EDGE_CURVE('',#478,#470,#480,.T.);
#478 = VERTEX_POINT('',#479);
#479 = CARTESIAN_POINT('',(0.,23.05608216237,0.));
#480 = LINE('',#481,#482);
#481 = CARTESIAN_POINT('',(-5.E-17,23.05608216237,0.));
#482 = VECTOR('',#483,1.);
#483 = DIRECTION('',(0.,0.,1.));
#484 = ORIENTED_EDGE('',*,*,#485,.F.);
#485 = EDGE_CURVE('',#460,#478,#486,.T.);
#486 = LINE('',#487,#488);
#487 = CARTESIAN_POINT('',(3.75,6.495190528383,0.));
#488 = VECTOR('',#489,1.);
#489 = DIRECTION('',(-0.220846052867,0.97530867982,0.));
#490 = PLANE('',#491);
#491 = AXIS2_PLACEMENT_3D('',#492,#493,#494);
#492 = CARTESIAN_POINT('',(3.75,6.495190528383,0.));
#493 = DIRECTION('',(-0.97530867982,-0.220846052867,0.));
#494 = DIRECTION('',(-0.220846052867,0.97530867982,0.));
#495 = ADVANCED_FACE('',(#496),#521,.F.);
#496 = FACE_BOUND('',#497,.F.);
#497 = EDGE_LOOP('',(#498,#508,#514,#515));
#498 = ORIENTED_EDGE('',*,*,#499,.T.);
#499 = EDGE_CURVE('',#500,#502,#504,.T.);
#500 = VERTEX_POINT('',#501);
#501 = CARTESIAN_POINT('',(-3.75,6.495190528383,0.));
#502 = VERTEX_POINT('',#503);
#503 = CARTESIAN_POINT('',(-3.75,6.495190528383,4.));
#504 = LINE('',#505,#506);
#505 = CARTESIAN_POINT('',(-3.75,6.495190528383,0.));
#506 = VECTOR('',#507,1.);
#507 = DIRECTION('',(0.,0.,1.));
#508 = ORIENTED_EDGE('',*,*,#509,.T.);
#509 = EDGE_CURVE('',#502,#470,#510,.T.);
#510 = LINE('',#511,#512);
#511 = CARTESIAN_POINT('',(-3.75,6.495190528383,4.));
#512 = VECTOR('',#513,1.);
#513 = DIRECTION('',(0.220846052867,0.97530867982,0.));
#514 = ORIENTED_EDGE('',*,*,#477,.F.);
#515 = ORIENTED_EDGE('',*,*,#516,.F.);
#516 = EDGE_CURVE('',#500,#478,#517,.T.);
#517 = LINE('',#518,#519);
#518 = CARTESIAN_POINT('',(-3.75,6.495190528383,0.));
#519 = VECTOR('',#520,1.);
#520 = DIRECTION('',(0.220846052867,0.97530867982,0.));
#521 = PLANE('',#522);
#522 = AXIS2_PLACEMENT_3D('',#523,#524,#525);
#523 = CARTESIAN_POINT('',(-3.75,6.495190528383,0.));
#524 = DIRECTION('',(-0.97530867982,0.220846052867,0.));
#525 = DIRECTION('',(0.220846052867,0.97530867982,0.));
#526 = ADVANCED_FACE('',(#527),#552,.T.);
#527 = FACE_BOUND('',#528,.T.);
#528 = EDGE_LOOP('',(#529,#530,#538,#546));
#529 = ORIENTED_EDGE('',*,*,#499,.T.);
#530 = ORIENTED_EDGE('',*,*,#531,.T.);
#531 = EDGE_CURVE('',#502,#532,#534,.T.);
#532 = VERTEX_POINT('',#533);
#533 = CARTESIAN_POINT('',(-19.96715286435,11.528041081185,4.));
#534 = LINE('',#535,#536);
#535 = CARTESIAN_POINT('',(-3.75,6.495190528383,4.));
#536 = VECTOR('',#537,1.);
#537 = DIRECTION('',(-0.955065119689,0.296396047802,0.));
#538 = ORIENTED_EDGE('',*,*,#539,.F.);
#539 = EDGE_CURVE('',#540,#532,#542,.T.);
#540 = VERTEX_POINT('',#541);
#541 = CARTESIAN_POINT('',(-19.96715286435,11.528041081185,0.));
#542 = LINE('',#543,#544);
#543 = CARTESIAN_POINT('',(-19.96715286435,11.528041081185,0.));
#544 = VECTOR('',#545,1.);
#545 = DIRECTION('',(0.,0.,1.));
#546 = ORIENTED_EDGE('',*,*,#547,.F.);
#547 = EDGE_CURVE('',#500,#540,#548,.T.);
#548 = LINE('',#549,#550);
#549 = CARTESIAN_POINT('',(-3.75,6.495190528383,0.));
#550 = VECTOR('',#551,1.);
#551 = DIRECTION('',(-0.955065119689,0.296396047802,0.));
#552 = PLANE('',#553);
#553 = AXIS2_PLACEMENT_3D('',#554,#555,#556);
#554 = CARTESIAN_POINT('',(-3.75,6.495190528383,0.));
#555 = DIRECTION('',(-0.296396047802,-0.955065119689,0.));
#556 = DIRECTION('',(-0.955065119689,0.296396047802,0.));
#557 = ADVANCED_FACE('',(#558),#583,.T.);
#558 = FACE_BOUND('',#559,.T.);
#559 = EDGE_LOOP('',(#560,#561,#569,#577));
#560 = ORIENTED_EDGE('',*,*,#539,.T.);
#561 = ORIENTED_EDGE('',*,*,#562,.T.);
#562 = EDGE_CURVE('',#532,#563,#565,.T.);
#563 = VERTEX_POINT('',#564);
#564 = CARTESIAN_POINT('',(-7.5,-2.5E-14,4.));
#565 = LINE('',#566,#567);
#566 = CARTESIAN_POINT('',(-19.96715286435,11.528041081185,4.));
#567 = VECTOR('',#568,1.);
#568 = DIRECTION('',(0.734219066822,-0.678912632019,0.));
#569 = ORIENTED_EDGE('',*,*,#570,.F.);
#570 = EDGE_CURVE('',#571,#563,#573,.T.);
#571 = VERTEX_POINT('',#572);
#572 = CARTESIAN_POINT('',(-7.5,-2.5E-14,0.));
#573 = LINE('',#574,#575);
#574 = CARTESIAN_POINT('',(-7.5,-2.477E-14,0.));
#575 = VECTOR('',#576,1.);
#576 = DIRECTION('',(0.,0.,1.));
#577 = ORIENTED_EDGE('',*,*,#578,.F.);
#578 = EDGE_CURVE('',#540,#571,#579,.T.);
#579 = LINE('',#580,#581);
#580 = CARTESIAN_POINT('',(-19.96715286435,11.528041081185,0.));
#581 = VECTOR('',#582,1.);
#582 = DIRECTION('',(0.734219066822,-0.678912632019,0.));
#583 = PLANE('',#584);
#584 = AXIS2_PLACEMENT_3D('',#585,#586,#587);
#585 = CARTESIAN_POINT('',(-19.96715286435,11.528041081185,0.));
#586 = DIRECTION('',(0.678912632019,0.734219066822,0.));
#587 = DIRECTION('',(0.734219066822,-0.678912632019,0.));
#588 = ADVANCED_FACE('',(#589),#614,.T.);
#589 = FACE_BOUND('',#590,.T.);
#590 = EDGE_LOOP('',(#591,#592,#600,#608));
#591 = ORIENTED_EDGE('',*,*,#570,.T.);
#592 = ORIENTED_EDGE('',*,*,#593,.T.);
#593 = EDGE_CURVE('',#563,#594,#596,.T.);
#594 = VERTEX_POINT('',#595);
#595 = CARTESIAN_POINT('',(-19.96715286435,-11.52804108118,4.));
#596 = LINE('',#597,#598);
#597 = CARTESIAN_POINT('',(-7.5,-2.477E-14,4.));
#598 = VECTOR('',#599,1.);
#599 = DIRECTION('',(-0.734219066822,-0.678912632019,0.));
#600 = ORIENTED_EDGE('',*,*,#601,.F.);
#601 = EDGE_CURVE('',#602,#594,#604,.T.);
#602 = VERTEX_POINT('',#603);
#603 = CARTESIAN_POINT('',(-19.96715286435,-11.52804108118,0.));
#604 = LINE('',#605,#606);
#605 = CARTESIAN_POINT('',(-19.96715286435,-11.52804108118,0.));
#606 = VECTOR('',#607,1.);
#607 = DIRECTION('',(0.,0.,1.));
#608 = ORIENTED_EDGE('',*,*,#609,.F.);
#609 = EDGE_CURVE('',#571,#602,#610,.T.);
#610 = LINE('',#611,#612);
#611 = CARTESIAN_POINT('',(-7.5,-2.477E-14,0.));
#612 = VECTOR('',#613,1.);
#613 = DIRECTION('',(-0.734219066822,-0.678912632019,0.));
#614 = PLANE('',#615);
#615 = AXIS2_PLACEMENT_3D('',#616,#617,#618);
#616 = CARTESIAN_POINT('',(-7.5,-2.477E-14,0.));
#617 = DIRECTION('',(0.678912632019,-0.734219066822,0.));
#618 = DIRECTION('',(-0.734219066822,-0.678912632019,0.));
#619 = ADVANCED_FACE('',(#620),#645,.F.);
#620 = FACE_BOUND('',#621,.F.);
#621 = EDGE_LOOP('',(#622,#632,#638,#639));
#622 = ORIENTED_EDGE('',*,*,#623,.T.);
#623 = EDGE_CURVE('',#624,#626,#628,.T.);
#624 = VERTEX_POINT('',#625);
#625 = CARTESIAN_POINT('',(-3.75,-6.495190528383,0.));
#626 = VERTEX_POINT('',#627);
#627 = CARTESIAN_POINT('',(-3.75,-6.495190528383,4.));
#628 = LINE('',#629,#630);
#629 = CARTESIAN_POINT('',(-3.75,-6.495190528383,0.));
#630 = VECTOR('',#631,1.);
#631 = DIRECTION('',(0.,0.,1.));
#632 = ORIENTED_EDGE('',*,*,#633,.T.);
#633 = EDGE_CURVE('',#626,#594,#634,.T.);
#634 = LINE('',#635,#636);
#635 = CARTESIAN_POINT('',(-3.75,-6.495190528383,4.));
#636 = VECTOR('',#637,1.);
#637 = DIRECTION('',(-0.955065119689,-0.296396047802,0.));
#638 = ORIENTED_EDGE('',*,*,#601,.F.);
#639 = ORIENTED_EDGE('',*,*,#640,.F.);
#640 = EDGE_CURVE('',#624,#602,#641,.T.);
#641 = LINE('',#642,#643);
#642 = CARTESIAN_POINT('',(-3.75,-6.495190528383,0.));
#643 = VECTOR('',#644,1.);
#644 = DIRECTION('',(-0.955065119689,-0.296396047802,0.));
#645 = PLANE('',#646);
#646 = AXIS2_PLACEMENT_3D('',#647,#648,#649);
#647 = CARTESIAN_POINT('',(-3.75,-6.495190528383,0.));
#648 = DIRECTION('',(0.296396047802,-0.955065119689,0.));
#649 = DIRECTION('',(-0.955065119689,-0.296396047802,0.));
#650 = ADVANCED_FACE('',(#651),#676,.T.);
#651 = FACE_BOUND('',#652,.T.);
#652 = EDGE_LOOP('',(#653,#654,#662,#670));
#653 = ORIENTED_EDGE('',*,*,#623,.T.);
#654 = ORIENTED_EDGE('',*,*,#655,.T.);
#655 = EDGE_CURVE('',#626,#656,#658,.T.);
#656 = VERTEX_POINT('',#657);
#657 = CARTESIAN_POINT('',(0.,-23.05608216237,4.));
#658 = LINE('',#659,#660);
#659 = CARTESIAN_POINT('',(-3.75,-6.495190528383,4.));
#660 = VECTOR('',#661,1.);
#661 = DIRECTION('',(0.220846052867,-0.97530867982,0.));
#662 = ORIENTED_EDGE('',*,*,#663,.F.);
#663 = EDGE_CURVE('',#664,#656,#666,.T.);
#664 = VERTEX_POINT('',#665);
#665 = CARTESIAN_POINT('',(0.,-23.05608216237,0.));
#666 = LINE('',#667,#668);
#667 = CARTESIAN_POINT('',(-2.E-17,-23.05608216237,0.));
#668 = VECTOR('',#669,1.);
#669 = DIRECTION('',(0.,0.,1.));
#670 = ORIENTED_EDGE('',*,*,#671,.F.);
#671 = EDGE_CURVE('',#624,#664,#672,.T.);
#672 = LINE('',#673,#674);
#673 = CARTESIAN_POINT('',(-3.75,-6.495190528383,0.));
#674 = VECTOR('',#675,1.);
#675 = DIRECTION('',(0.220846052867,-0.97530867982,0.));
#676 = PLANE('',#677);
#677 = AXIS2_PLACEMENT_3D('',#678,#679,#680);
#678 = CARTESIAN_POINT('',(-3.75,-6.495190528383,0.));
#679 = DIRECTION('',(0.97530867982,0.220846052867,0.));
#680 = DIRECTION('',(0.220846052867,-0.97530867982,0.));
#681 = ADVANCED_FACE('',(#682),#707,.F.);
#682 = FACE_BOUND('',#683,.F.);
#683 = EDGE_LOOP('',(#684,#694,#700,#701));
#684 = ORIENTED_EDGE('',*,*,#685,.T.);
#685 = EDGE_CURVE('',#686,#688,#690,.T.);
#686 = VERTEX_POINT('',#687);
#687 = CARTESIAN_POINT('',(3.75,-6.495190528383,0.));
#688 = VERTEX_POINT('',#689);
#689 = CARTESIAN_POINT('',(3.75,-6.495190528383,4.));
#690 = LINE('',#691,#692);
#691 = CARTESIAN_POINT('',(3.75,-6.495190528383,0.));
#692 = VECTOR('',#693,1.);
#693 = DIRECTION('',(0.,0.,1.));
#694 = ORIENTED_EDGE('',*,*,#695,.T.);
#695 = EDGE_CURVE('',#688,#656,#696,.T.);
#696 = LINE('',#697,#698);
#697 = CARTESIAN_POINT('',(3.75,-6.495190528383,4.));
#698 = VECTOR('',#699,1.);
#699 = DIRECTION('',(-0.220846052867,-0.97530867982,0.));
#700 = ORIENTED_EDGE('',*,*,#663,.F.);
#701 = ORIENTED_EDGE('',*,*,#702,.F.);
#702 = EDGE_CURVE('',#686,#664,#703,.T.);
#703 = LINE('',#704,#705);
#704 = CARTESIAN_POINT('',(3.75,-6.495190528383,0.));
#705 = VECTOR('',#706,1.);
#706 = DIRECTION('',(-0.220846052867,-0.97530867982,0.));
#707 = PLANE('',#708);
#708 = AXIS2_PLACEMENT_3D('',#709,#710,#711);
#709 = CARTESIAN_POINT('',(3.75,-6.495190528383,0.));
#710 = DIRECTION('',(0.97530867982,-0.220846052867,0.));
#711 = DIRECTION('',(-0.220846052867,-0.97530867982,0.));
#712 = ADVANCED_FACE('',(#713),#738,.T.);
#713 = FACE_BOUND('',#714,.T.);
#714 = EDGE_LOOP('',(#715,#716,#724,#732));
#715 = ORIENTED_EDGE('',*,*,#685,.T.);
#716 = ORIENTED_EDGE('',*,*,#717,.T.);
#717 = EDGE_CURVE('',#688,#718,#720,.T.);
#718 = VERTEX_POINT('',#719);
#719 = CARTESIAN_POINT('',(19.967152864354,-11.52804108118,4.));
#720 = LINE('',#721,#722);
#721 = CARTESIAN_POINT('',(3.75,-6.495190528383,4.));
#722 = VECTOR('',#723,1.);
#723 = DIRECTION('',(0.95506511969,-0.296396047802,0.));
#724 = ORIENTED_EDGE('',*,*,#725,.F.);
#725 = EDGE_CURVE('',#726,#718,#728,.T.);
#726 = VERTEX_POINT('',#727);
#727 = CARTESIAN_POINT('',(19.967152864354,-11.52804108118,0.));
#728 = LINE('',#729,#730);
#729 = CARTESIAN_POINT('',(19.967152864354,-11.52804108118,0.));
#730 = VECTOR('',#731,1.);
#731 = DIRECTION('',(0.,0.,1.));
#732 = ORIENTED_EDGE('',*,*,#733,.F.);
#733 = EDGE_CURVE('',#686,#726,#734,.T.);
#734 = LINE('',#735,#736);
#735 = CARTESIAN_POINT('',(3.75,-6.495190528383,0.));
#736 = VECTOR('',#737,1.);
#737 = DIRECTION('',(0.95506511969,-0.296396047802,0.));
#738 = PLANE('',#739);
#739 = AXIS2_PLACEMENT_3D('',#740,#741,#742);
#740 = CARTESIAN_POINT('',(3.75,-6.495190528383,0.));
#741 = DIRECTION('',(0.296396047802,0.95506511969,0.));
#742 = DIRECTION('',(0.95506511969,-0.296396047802,0.));
#743 = ADVANCED_FACE('',(#744),#769,.F.);
#744 = FACE_BOUND('',#745,.F.);
#745 = EDGE_LOOP('',(#746,#756,#762,#763));
#746 = ORIENTED_EDGE('',*,*,#747,.T.);
#747 = EDGE_CURVE('',#748,#750,#752,.T.);
#748 = VERTEX_POINT('',#749);
#749 = CARTESIAN_POINT('',(7.5,7.8E-14,0.));
#750 = VERTEX_POINT('',#751);
#751 = CARTESIAN_POINT('',(7.5,7.8E-14,4.));
#752 = LINE('',#753,#754);
#753 = CARTESIAN_POINT('',(7.5,7.815E-14,0.));
#754 = VECTOR('',#755,1.);
#755 = DIRECTION('',(0.,0.,1.));
#756 = ORIENTED_EDGE('',*,*,#757,.T.);
#757 = EDGE_CURVE('',#750,#718,#758,.T.);
#758 = LINE('',#759,#760);
#759 = CARTESIAN_POINT('',(7.5,7.815E-14,4.));
#760 = VECTOR('',#761,1.);
#761 = DIRECTION('',(0.734219066822,-0.678912632019,0.));
#762 = ORIENTED_EDGE('',*,*,#725,.F.);
#763 = ORIENTED_EDGE('',*,*,#764,.F.);
#764 = EDGE_CURVE('',#748,#726,#765,.T.);
#765 = LINE('',#766,#767);
#766 = CARTESIAN_POINT('',(7.5,7.815E-14,0.));
#767 = VECTOR('',#768,1.);
#768 = DIRECTION('',(0.734219066822,-0.678912632019,0.));
#769 = PLANE('',#770);
#770 = AXIS2_PLACEMENT_3D('',#771,#772,#773);
#771 = CARTESIAN_POINT('',(7.5,7.815E-14,0.));
#772 = DIRECTION('',(0.678912632019,0.734219066822,0.));
#773 = DIRECTION('',(0.734219066822,-0.678912632019,0.));
#774 = ADVANCED_FACE('',(#775),#800,.T.);
#775 = FACE_BOUND('',#776,.T.);
#776 = EDGE_LOOP('',(#777,#778,#786,#794));
#777 = ORIENTED_EDGE('',*,*,#747,.T.);
#778 = ORIENTED_EDGE('',*,*,#779,.T.);
#779 = EDGE_CURVE('',#750,#780,#782,.T.);
#780 = VERTEX_POINT('',#781);
#781 = CARTESIAN_POINT('',(19.967152864354,11.528041081185,4.));
#782 = LINE('',#783,#784);
#783 = CARTESIAN_POINT('',(7.5,7.815E-14,4.));
#784 = VECTOR('',#785,1.);
#785 = DIRECTION('',(0.734219066822,0.678912632019,0.));
#786 = ORIENTED_EDGE('',*,*,#787,.F.);
#787 = EDGE_CURVE('',#788,#780,#790,.T.);
#788 = VERTEX_POINT('',#789);
#789 = CARTESIAN_POINT('',(19.967152864354,11.528041081185,0.));
#790 = LINE('',#791,#792);
#791 = CARTESIAN_POINT('',(19.967152864354,11.528041081185,0.));
#792 = VECTOR('',#793,1.);
#793 = DIRECTION('',(0.,0.,1.));
#794 = ORIENTED_EDGE('',*,*,#795,.F.);
#795 = EDGE_CURVE('',#748,#788,#796,.T.);
#796 = LINE('',#797,#798);
#797 = CARTESIAN_POINT('',(7.5,7.815E-14,0.));
#798 = VECTOR('',#799,1.);
#799 = DIRECTION('',(0.734219066822,0.678912632019,0.));
#800 = PLANE('',#801);
#801 = AXIS2_PLACEMENT_3D('',#802,#803,#804);
#802 = CARTESIAN_POINT('',(7.5,7.815E-14,0.));
#803 = DIRECTION('',(-0.678912632019,0.734219066822,0.));
#804 = DIRECTION('',(0.734219066822,0.678912632019,0.));
#805 = ADVANCED_FACE('',(#806),#822,.F.);
#806 = FACE_BOUND('',#807,.F.);
#807 = EDGE_LOOP('',(#808,#809,#815,#816));
#808 = ORIENTED_EDGE('',*,*,#459,.T.);
#809 = ORIENTED_EDGE('',*,*,#810,.T.);
#810 = EDGE_CURVE('',#462,#780,#811,.T.);
#811 = LINE('',#812,#813);
#812 = CARTESIAN_POINT('',(3.75,6.495190528383,4.));
#813 = VECTOR('',#814,1.);
#814 = DIRECTION('',(0.955065119689,0.296396047802,0.));
#815 = ORIENTED_EDGE('',*,*,#787,.F.);
#816 = ORIENTED_EDGE('',*,*,#817,.F.);
#817 = EDGE_CURVE('',#460,#788,#818,.T.);
#818 = LINE('',#819,#820);
#819 = CARTESIAN_POINT('',(3.75,6.495190528383,0.));
#820 = VECTOR('',#821,1.);
#821 = DIRECTION('',(0.955065119689,0.296396047802,0.));
#822 = PLANE('',#823);
#823 = AXIS2_PLACEMENT_3D('',#824,#825,#826);
#824 = CARTESIAN_POINT('',(3.75,6.495190528383,0.));
#825 = DIRECTION('',(-0.296396047802,0.955065119689,0.));
#826 = DIRECTION('',(0.955065119689,0.296396047802,0.));
#827 = ADVANCED_FACE('',(#828),#855,.F.);
#828 = FACE_BOUND('',#829,.T.);
#829 = EDGE_LOOP('',(#830,#840,#847,#848));
#830 = ORIENTED_EDGE('',*,*,#831,.T.);
#831 = EDGE_CURVE('',#832,#834,#836,.T.);
#832 = VERTEX_POINT('',#833);
#833 = CARTESIAN_POINT('',(1.6,-45.,0.));
#834 = VERTEX_POINT('',#835);
#835 = CARTESIAN_POINT('',(1.6,-45.,4.));
#836 = LINE('',#837,#838);
#837 = CARTESIAN_POINT('',(1.6,-45.,0.));
#838 = VECTOR('',#839,1.);
#839 = DIRECTION('',(0.,0.,1.));
#840 = ORIENTED_EDGE('',*,*,#841,.T.);
#841 = EDGE_CURVE('',#834,#834,#842,.T.);
#842 = CIRCLE('',#843,1.600000000001);
#843 = AXIS2_PLACEMENT_3D('',#844,#845,#846);
#844 = CARTESIAN_POINT('',(-9.3629E-13,-45.,4.));
#845 = DIRECTION('',(0.,0.,1.));
#846 = DIRECTION('',(1.,0.,0.));
#847 = ORIENTED_EDGE('',*,*,#831,.F.);
#848 = ORIENTED_EDGE('',*,*,#849,.F.);
#849 = EDGE_CURVE('',#832,#832,#850,.T.);
#850 = CIRCLE('',#851,1.600000000001);
#851 = AXIS2_PLACEMENT_3D('',#852,#853,#854);
#852 = CARTESIAN_POINT('',(-9.3629E-13,-45.,0.));
#853 = DIRECTION('',(0.,0.,1.));
#854 = DIRECTION('',(1.,0.,0.));
#855 = CYLINDRICAL_SURFACE('',#856,1.600000000001);
#856 = AXIS2_PLACEMENT_3D('',#857,#858,#859);
#857 = CARTESIAN_POINT('',(-9.3629E-13,-45.,0.));
#858 = DIRECTION('',(-0.,-0.,-1.));
#859 = DIRECTION('',(1.,0.,0.));
#860 = ADVANCED_FACE('',(#861),#888,.F.);
#861 = FACE_BOUND('',#862,.T.);
#862 = EDGE_LOOP('',(#863,#873,#880,#881));
#863 = ORIENTED_EDGE('',*,*,#864,.T.);
#864 = EDGE_CURVE('',#865,#867,#869,.T.);
#865 = VERTEX_POINT('',#866);
#866 = CARTESIAN_POINT('',(1.599999999982,44.999999999999,0.));
#867 = VERTEX_POINT('',#868);
#868 = CARTESIAN_POINT('',(1.599999999982,44.999999999999,4.));
#869 = LINE('',#870,#871);
#870 = CARTESIAN_POINT('',(1.599999999982,44.999999999999,0.));
#871 = VECTOR('',#872,1.);
#872 = DIRECTION('',(0.,0.,1.));
#873 = ORIENTED_EDGE('',*,*,#874,.T.);
#874 = EDGE_CURVE('',#867,#867,#875,.T.);
#875 = CIRCLE('',#876,1.599999999991);
#876 = AXIS2_PLACEMENT_3D('',#877,#878,#879);
#877 = CARTESIAN_POINT('',(-9.0048E-12,44.999999999999,4.));
#878 = DIRECTION('',(0.,0.,1.));
#879 = DIRECTION('',(1.,0.,0.));
#880 = ORIENTED_EDGE('',*,*,#864,.F.);
#881 = ORIENTED_EDGE('',*,*,#882,.F.);
#882 = EDGE_CURVE('',#865,#865,#883,.T.);
#883 = CIRCLE('',#884,1.599999999991);
#884 = AXIS2_PLACEMENT_3D('',#885,#886,#887);
#885 = CARTESIAN_POINT('',(-9.0048E-12,44.999999999999,0.));
#886 = DIRECTION('',(0.,0.,1.));
#887 = DIRECTION('',(1.,0.,0.));
#888 = CYLINDRICAL_SURFACE('',#889,1.599999999991);
#889 = AXIS2_PLACEMENT_3D('',#890,#891,#892);
#890 = CARTESIAN_POINT('',(-9.0048E-12,44.999999999999,0.));
#891 = DIRECTION('',(-0.,-0.,-1.));
#892 = DIRECTION('',(1.,0.,0.));
#893 = ADVANCED_FACE('',(#894,#910,#924,#927),#930,.F.);
#894 = FACE_BOUND('',#895,.F.);
#895 = EDGE_LOOP('',(#896,#897,#898,#899,#900,#901,#902,#903,#904,#905,
    #906,#907,#908,#909));
#896 = ORIENTED_EDGE('',*,*,#47,.T.);
#897 = ORIENTED_EDGE('',*,*,#78,.T.);
#898 = ORIENTED_EDGE('',*,*,#109,.T.);
#899 = ORIENTED_EDGE('',*,*,#140,.T.);
#900 = ORIENTED_EDGE('',*,*,#171,.T.);
#901 = ORIENTED_EDGE('',*,*,#203,.T.);
#902 = ORIENTED_EDGE('',*,*,#235,.T.);
#903 = ORIENTED_EDGE('',*,*,#266,.T.);
#904 = ORIENTED_EDGE('',*,*,#297,.T.);
#905 = ORIENTED_EDGE('',*,*,#328,.T.);
#906 = ORIENTED_EDGE('',*,*,#359,.T.);
#907 = ORIENTED_EDGE('',*,*,#390,.T.);
#908 = ORIENTED_EDGE('',*,*,#422,.T.);
#909 = ORIENTED_EDGE('',*,*,#445,.F.);
#910 = FACE_BOUND('',#911,.T.);
#911 = EDGE_LOOP('',(#912,#913,#914,#915,#916,#917,#918,#919,#920,#921,
    #922,#923));
#912 = ORIENTED_EDGE('',*,*,#485,.T.);
#913 = ORIENTED_EDGE('',*,*,#516,.F.);
#914 = ORIENTED_EDGE('',*,*,#547,.T.);
#915 = ORIENTED_EDGE('',*,*,#578,.T.);
#916 = ORIENTED_EDGE('',*,*,#609,.T.);
#917 = ORIENTED_EDGE('',*,*,#640,.F.);
#918 = ORIENTED_EDGE('',*,*,#671,.T.);
#919 = ORIENTED_EDGE('',*,*,#702,.F.);
#920 = ORIENTED_EDGE('',*,*,#733,.T.);
#921 = ORIENTED_EDGE('',*,*,#764,.F.);
#922 = ORIENTED_EDGE('',*,*,#795,.T.);
#923 = ORIENTED_EDGE('',*,*,#817,.F.);
#924 = FACE_BOUND('',#925,.T.);
#925 = EDGE_LOOP('',(#926));
#926 = ORIENTED_EDGE('',*,*,#849,.T.);
#927 = FACE_BOUND('',#928,.T.);
#928 = EDGE_LOOP('',(#929));
#929 = ORIENTED_EDGE('',*,*,#882,.T.);
#930 = PLANE('',#931);
#931 = AXIS2_PLACEMENT_3D('',#932,#933,#934);
#932 = CARTESIAN_POINT('',(-6.077292688773E-05,5.386433719192E-02,0.));
#933 = DIRECTION('',(0.,0.,1.));
#934 = DIRECTION('',(1.,0.,0.));
#935 = ADVANCED_FACE('',(#936,#952,#966,#969),#972,.T.);
#936 = FACE_BOUND('',#937,.T.);
#937 = EDGE_LOOP('',(#938,#939,#940,#941,#942,#943,#944,#945,#946,#947,
    #948,#949,#950,#951));
#938 = ORIENTED_EDGE('',*,*,#31,.T.);
#939 = ORIENTED_EDGE('',*,*,#62,.T.);
#940 = ORIENTED_EDGE('',*,*,#93,.T.);
#941 = ORIENTED_EDGE('',*,*,#124,.T.);
#942 = ORIENTED_EDGE('',*,*,#155,.T.);
#943 = ORIENTED_EDGE('',*,*,#186,.T.);
#944 = ORIENTED_EDGE('',*,*,#219,.T.);
#945 = ORIENTED_EDGE('',*,*,#250,.T.);
#946 = ORIENTED_EDGE('',*,*,#281,.T.);
#947 = ORIENTED_EDGE('',*,*,#312,.T.);
#948 = ORIENTED_EDGE('',*,*,#343,.T.);
#949 = ORIENTED_EDGE('',*,*,#374,.T.);
#950 = ORIENTED_EDGE('',*,*,#405,.T.);
#951 = ORIENTED_EDGE('',*,*,#438,.F.);
#952 = FACE_BOUND('',#953,.F.);
#953 = EDGE_LOOP('',(#954,#955,#956,#957,#958,#959,#960,#961,#962,#963,
    #964,#965));
#954 = ORIENTED_EDGE('',*,*,#469,.T.);
#955 = ORIENTED_EDGE('',*,*,#509,.F.);
#956 = ORIENTED_EDGE('',*,*,#531,.T.);
#957 = ORIENTED_EDGE('',*,*,#562,.T.);
#958 = ORIENTED_EDGE('',*,*,#593,.T.);
#959 = ORIENTED_EDGE('',*,*,#633,.F.);
#960 = ORIENTED_EDGE('',*,*,#655,.T.);
#961 = ORIENTED_EDGE('',*,*,#695,.F.);
#962 = ORIENTED_EDGE('',*,*,#717,.T.);
#963 = ORIENTED_EDGE('',*,*,#757,.F.);
#964 = ORIENTED_EDGE('',*,*,#779,.T.);
#965 = ORIENTED_EDGE('',*,*,#810,.F.);
#966 = FACE_BOUND('',#967,.F.);
#967 = EDGE_LOOP('',(#968));
#968 = ORIENTED_EDGE('',*,*,#841,.T.);
#969 = FACE_BOUND('',#970,.F.);
#970 = EDGE_LOOP('',(#971));
#971 = ORIENTED_EDGE('',*,*,#874,.T.);
#972 = PLANE('',#973);
#973 = AXIS2_PLACEMENT_3D('',#974,#975,#976);
#974 = CARTESIAN_POINT('',(-6.077292688773E-05,5.386433719192E-02,4.));
#975 = DIRECTION('',(0.,0.,1.));
#976 = DIRECTION('',(1.,0.,0.));
#977 = ( GEOMETRIC_REPRESENTATION_CONTEXT(3) 
GLOBAL_UNCERTAINTY_ASSIGNED_CONTEXT((#981)) GLOBAL_UNIT_ASSIGNED_CONTEXT
((#978,#979,#980)) REPRESENTATION_CONTEXT('Context #1',
  '3D Context with UNIT and UNCERTAINTY') );
#978 = ( LENGTH_UNIT() NAMED_UNIT(*) SI_UNIT(.MILLI.,.METRE.) );
#979 = ( NAMED_UNIT(*) PLANE_ANGLE_UNIT() SI_UNIT($,.RADIAN.) );
#980 = ( NAMED_UNIT(*) SI_UNIT($,.STERADIAN.) SOLID_ANGLE_UNIT() );
#981 = UNCERTAINTY_MEASURE_WITH_UNIT(LENGTH_MEASURE(1.E-07),#978,
  'distance_accuracy_value','confusion accuracy');
#982 = PRODUCT_RELATED_PRODUCT_CATEGORY('part',$,(#7));
#983 = MECHANICAL_DESIGN_GEOMETRIC_PRESENTATION_REPRESENTATION('',(#984)
  ,#977);
#984 = STYLED_ITEM('color',(#985),#15);
#985 = PRESENTATION_STYLE_ASSIGNMENT((#986,#992));
#986 = SURFACE_STYLE_USAGE(.BOTH.,#987);
#987 = SURFACE_SIDE_STYLE('',(#988));
#988 = SURFACE_STYLE_FILL_AREA(#989);
#989 = FILL_AREA_STYLE('',(#990));
#990 = FILL_AREA_STYLE_COLOUR('',#991);
#991 = COLOUR_RGB('',0.447058818107,0.474509808674,0.501960817233);
#992 = CURVE_STYLE('',#993,POSITIVE_LENGTH_MEASURE(0.1),#994);
#993 = DRAUGHTING_PRE_DEFINED_CURVE_FONT('continuous');
#994 = COLOUR_RGB('',9.803921802644E-02,9.803921802644E-02,
  9.803921802644E-02);
ENDSEC;
END-ISO-10303-21;
