ISO-10303-21;
HEADER;
FILE_DESCRIPTION(('FreeCAD Model'),'2;1');
FILE_NAME('Open CASCADE Shape Model','2025-11-11T19:07:01',(''),(''),
  'Open CASCADE STEP processor 7.9','FreeCAD','Unknown');
FILE_SCHEMA(('AUTOMOTIVE_DESIGN { 1 0 10303 214 1 1 1 1 }'));
ENDSEC;
DATA;
#1 = APPLICATION_PROTOCOL_DEFINITION('international standard',
  'automotive_design',2000,#2);
#2 = APPLICATION_CONTEXT(
  'core data for automotive mechanical design processes');
#3 = SHAPE_DEFINITION_REPRESENTATION(#4,#10);
#4 = PRODUCT_DEFINITION_SHAPE('','',#5);
#5 = PRODUCT_DEFINITION('design','',#6,#9);
#6 = PRODUCT_DEFINITION_FORMATION('','',#7);
#7 = PRODUCT('Body','Body','',(#8));
#8 = PRODUCT_CONTEXT('',#2,'mechanical');
#9 = PRODUCT_DEFINITION_CONTEXT('part definition',#2,'design');
#10 = ADVANCED_BREP_SHAPE_REPRESENTATION('',(#11,#15),#546);
#11 = AXIS2_PLACEMENT_3D('',#12,#13,#14);
#12 = CARTESIAN_POINT('',(0.,0.,0.));
#13 = DIRECTION('',(0.,0.,1.));
#14 = DIRECTION('',(1.,0.,-0.));
#15 = MANIFOLD_SOLID_BREP('',#16);
#16 = CLOSED_SHELL('',(#17,#50,#90,#121,#152,#183,#214,#245,#276,#307,
    #338,#369,#400,#422,#455,#488,#517));
#17 = ADVANCED_FACE('',(#18),#45,.T.);
#18 = FACE_BOUND('',#19,.F.);
#19 = EDGE_LOOP('',(#20,#30,#37,#38));
#20 = ORIENTED_EDGE('',*,*,#21,.T.);
#21 = EDGE_CURVE('',#22,#24,#26,.T.);
#22 = VERTEX_POINT('',#23);
#23 = CARTESIAN_POINT('',(50.,0.,0.));
#24 = VERTEX_POINT('',#25);
#25 = CARTESIAN_POINT('',(50.,0.,4.));
#26 = LINE('',#27,#28);
#27 = CARTESIAN_POINT('',(50.,0.,0.));
#28 = VECTOR('',#29,1.);
#29 = DIRECTION('',(0.,0.,1.));
#30 = ORIENTED_EDGE('',*,*,#31,.T.);
#31 = EDGE_CURVE('',#24,#24,#32,.T.);
#32 = CIRCLE('',#33,50.);
#33 = AXIS2_PLACEMENT_3D('',#34,#35,#36);
#34 = CARTESIAN_POINT('',(0.,0.,4.));
#35 = DIRECTION('',(0.,0.,1.));
#36 = DIRECTION('',(1.,0.,0.));
#37 = ORIENTED_EDGE('',*,*,#21,.F.);
#38 = ORIENTED_EDGE('',*,*,#39,.F.);
#39 = EDGE_CURVE('',#22,#22,#40,.T.);
#40 = CIRCLE('',#41,50.);
#41 = AXIS2_PLACEMENT_3D('',#42,#43,#44);
#42 = CARTESIAN_POINT('',(0.,0.,0.));
#43 = DIRECTION('',(0.,0.,1.));
#44 = DIRECTION('',(1.,0.,0.));
#45 = CYLINDRICAL_SURFACE('',#46,50.);
#46 = AXIS2_PLACEMENT_3D('',#47,#48,#49);
#47 = CARTESIAN_POINT('',(0.,0.,0.));
#48 = DIRECTION('',(-0.,-0.,-1.));
#49 = DIRECTION('',(1.,0.,0.));
#50 = ADVANCED_FACE('',(#51),#85,.T.);
#51 = FACE_BOUND('',#52,.T.);
#52 = EDGE_LOOP('',(#53,#63,#71,#79));
#53 = ORIENTED_EDGE('',*,*,#54,.T.);
#54 = EDGE_CURVE('',#55,#57,#59,.T.);
#55 = VERTEX_POINT('',#56);
#56 = CARTESIAN_POINT('',(3.75,6.495190528383,0.));
#57 = VERTEX_POINT('',#58);
#58 = CARTESIAN_POINT('',(3.75,6.495190528383,4.));
#59 = LINE('',#60,#61);
#60 = CARTESIAN_POINT('',(3.75,6.495190528383,0.));
#61 = VECTOR('',#62,1.);
#62 = DIRECTION('',(0.,0.,1.));
#63 = ORIENTED_EDGE('',*,*,#64,.T.);
#64 = EDGE_CURVE('',#57,#65,#67,.T.);
#65 = VERTEX_POINT('',#66);
#66 = CARTESIAN_POINT('',(-4.859264788962E-17,23.05608216237,4.));
#67 = LINE('',#68,#69);
#68 = CARTESIAN_POINT('',(3.75,6.495190528383,4.));
#69 = VECTOR('',#70,1.);
#70 = DIRECTION('',(-0.220846052867,0.97530867982,0.));
#71 = ORIENTED_EDGE('',*,*,#72,.F.);
#72 = EDGE_CURVE('',#73,#65,#75,.T.);
#73 = VERTEX_POINT('',#74);
#74 = CARTESIAN_POINT('',(-4.859264788962E-17,23.05608216237,0.));
#75 = LINE('',#76,#77);
#76 = CARTESIAN_POINT('',(-4.859264788962E-17,23.05608216237,0.));
#77 = VECTOR('',#78,1.);
#78 = DIRECTION('',(0.,0.,1.));
#79 = ORIENTED_EDGE('',*,*,#80,.F.);
#80 = EDGE_CURVE('',#55,#73,#81,.T.);
#81 = LINE('',#82,#83);
#82 = CARTESIAN_POINT('',(3.75,6.495190528383,0.));
#83 = VECTOR('',#84,1.);
#84 = DIRECTION('',(-0.220846052867,0.97530867982,0.));
#85 = PLANE('',#86);
#86 = AXIS2_PLACEMENT_3D('',#87,#88,#89);
#87 = CARTESIAN_POINT('',(3.75,6.495190528383,0.));
#88 = DIRECTION('',(-0.97530867982,-0.220846052867,0.));
#89 = DIRECTION('',(-0.220846052867,0.97530867982,0.));
#90 = ADVANCED_FACE('',(#91),#116,.F.);
#91 = FACE_BOUND('',#92,.F.);
#92 = EDGE_LOOP('',(#93,#103,#109,#110));
#93 = ORIENTED_EDGE('',*,*,#94,.T.);
#94 = EDGE_CURVE('',#95,#97,#99,.T.);
#95 = VERTEX_POINT('',#96);
#96 = CARTESIAN_POINT('',(-3.75,6.495190528383,0.));
#97 = VERTEX_POINT('',#98);
#98 = CARTESIAN_POINT('',(-3.75,6.495190528383,4.));
#99 = LINE('',#100,#101);
#100 = CARTESIAN_POINT('',(-3.75,6.495190528383,0.));
#101 = VECTOR('',#102,1.);
#102 = DIRECTION('',(0.,0.,1.));
#103 = ORIENTED_EDGE('',*,*,#104,.T.);
#104 = EDGE_CURVE('',#97,#65,#105,.T.);
#105 = LINE('',#106,#107);
#106 = CARTESIAN_POINT('',(-3.75,6.495190528383,4.));
#107 = VECTOR('',#108,1.);
#108 = DIRECTION('',(0.220846052867,0.97530867982,0.));
#109 = ORIENTED_EDGE('',*,*,#72,.F.);
#110 = ORIENTED_EDGE('',*,*,#111,.F.);
#111 = EDGE_CURVE('',#95,#73,#112,.T.);
#112 = LINE('',#113,#114);
#113 = CARTESIAN_POINT('',(-3.75,6.495190528383,0.));
#114 = VECTOR('',#115,1.);
#115 = DIRECTION('',(0.220846052867,0.97530867982,0.));
#116 = PLANE('',#117);
#117 = AXIS2_PLACEMENT_3D('',#118,#119,#120);
#118 = CARTESIAN_POINT('',(-3.75,6.495190528383,0.));
#119 = DIRECTION('',(-0.97530867982,0.220846052867,0.));
#120 = DIRECTION('',(0.220846052867,0.97530867982,0.));
#121 = ADVANCED_FACE('',(#122),#147,.T.);
#122 = FACE_BOUND('',#123,.T.);
#123 = EDGE_LOOP('',(#124,#125,#133,#141));
#124 = ORIENTED_EDGE('',*,*,#94,.T.);
#125 = ORIENTED_EDGE('',*,*,#126,.T.);
#126 = EDGE_CURVE('',#97,#127,#129,.T.);
#127 = VERTEX_POINT('',#128);
#128 = CARTESIAN_POINT('',(-19.96715286435,11.528041081185,4.));
#129 = LINE('',#130,#131);
#130 = CARTESIAN_POINT('',(-3.75,6.495190528383,4.));
#131 = VECTOR('',#132,1.);
#132 = DIRECTION('',(-0.955065119689,0.296396047802,0.));
#133 = ORIENTED_EDGE('',*,*,#134,.F.);
#134 = EDGE_CURVE('',#135,#127,#137,.T.);
#135 = VERTEX_POINT('',#136);
#136 = CARTESIAN_POINT('',(-19.96715286435,11.528041081185,0.));
#137 = LINE('',#138,#139);
#138 = CARTESIAN_POINT('',(-19.96715286435,11.528041081185,0.));
#139 = VECTOR('',#140,1.);
#140 = DIRECTION('',(0.,0.,1.));
#141 = ORIENTED_EDGE('',*,*,#142,.F.);
#142 = EDGE_CURVE('',#95,#135,#143,.T.);
#143 = LINE('',#144,#145);
#144 = CARTESIAN_POINT('',(-3.75,6.495190528383,0.));
#145 = VECTOR('',#146,1.);
#146 = DIRECTION('',(-0.955065119689,0.296396047802,0.));
#147 = PLANE('',#148);
#148 = AXIS2_PLACEMENT_3D('',#149,#150,#151);
#149 = CARTESIAN_POINT('',(-3.75,6.495190528383,0.));
#150 = DIRECTION('',(-0.296396047802,-0.955065119689,0.));
#151 = DIRECTION('',(-0.955065119689,0.296396047802,0.));
#152 = ADVANCED_FACE('',(#153),#178,.T.);
#153 = FACE_BOUND('',#154,.T.);
#154 = EDGE_LOOP('',(#155,#156,#164,#172));
#155 = ORIENTED_EDGE('',*,*,#134,.T.);
#156 = ORIENTED_EDGE('',*,*,#157,.T.);
#157 = EDGE_CURVE('',#127,#158,#160,.T.);
#158 = VERTEX_POINT('',#159);
#159 = CARTESIAN_POINT('',(-7.5,-2.629646561526E-14,4.));
#160 = LINE('',#161,#162);
#161 = CARTESIAN_POINT('',(-19.96715286435,11.528041081185,4.));
#162 = VECTOR('',#163,1.);
#163 = DIRECTION('',(0.734219066822,-0.678912632019,0.));
#164 = ORIENTED_EDGE('',*,*,#165,.F.);
#165 = EDGE_CURVE('',#166,#158,#168,.T.);
#166 = VERTEX_POINT('',#167);
#167 = CARTESIAN_POINT('',(-7.5,-2.629646561526E-14,0.));
#168 = LINE('',#169,#170);
#169 = CARTESIAN_POINT('',(-7.5,-2.629646561526E-14,0.));
#170 = VECTOR('',#171,1.);
#171 = DIRECTION('',(0.,0.,1.));
#172 = ORIENTED_EDGE('',*,*,#173,.F.);
#173 = EDGE_CURVE('',#135,#166,#174,.T.);
#174 = LINE('',#175,#176);
#175 = CARTESIAN_POINT('',(-19.96715286435,11.528041081185,0.));
#176 = VECTOR('',#177,1.);
#177 = DIRECTION('',(0.734219066822,-0.678912632019,0.));
#178 = PLANE('',#179);
#179 = AXIS2_PLACEMENT_3D('',#180,#181,#182);
#180 = CARTESIAN_POINT('',(-19.96715286435,11.528041081185,0.));
#181 = DIRECTION('',(0.678912632019,0.734219066822,0.));
#182 = DIRECTION('',(0.734219066822,-0.678912632019,0.));
#183 = ADVANCED_FACE('',(#184),#209,.T.);
#184 = FACE_BOUND('',#185,.T.);
#185 = EDGE_LOOP('',(#186,#187,#195,#203));
#186 = ORIENTED_EDGE('',*,*,#165,.T.);
#187 = ORIENTED_EDGE('',*,*,#188,.T.);
#188 = EDGE_CURVE('',#158,#189,#191,.T.);
#189 = VERTEX_POINT('',#190);
#190 = CARTESIAN_POINT('',(-19.96715286435,-11.52804108118,4.));
#191 = LINE('',#192,#193);
#192 = CARTESIAN_POINT('',(-7.5,-2.593571558726E-14,4.));
#193 = VECTOR('',#194,1.);
#194 = DIRECTION('',(-0.734219066822,-0.678912632019,0.));
#195 = ORIENTED_EDGE('',*,*,#196,.F.);
#196 = EDGE_CURVE('',#197,#189,#199,.T.);
#197 = VERTEX_POINT('',#198);
#198 = CARTESIAN_POINT('',(-19.96715286435,-11.52804108118,0.));
#199 = LINE('',#200,#201);
#200 = CARTESIAN_POINT('',(-19.96715286435,-11.52804108118,0.));
#201 = VECTOR('',#202,1.);
#202 = DIRECTION('',(0.,0.,1.));
#203 = ORIENTED_EDGE('',*,*,#204,.F.);
#204 = EDGE_CURVE('',#166,#197,#205,.T.);
#205 = LINE('',#206,#207);
#206 = CARTESIAN_POINT('',(-7.5,-2.593571558726E-14,0.));
#207 = VECTOR('',#208,1.);
#208 = DIRECTION('',(-0.734219066822,-0.678912632019,0.));
#209 = PLANE('',#210);
#210 = AXIS2_PLACEMENT_3D('',#211,#212,#213);
#211 = CARTESIAN_POINT('',(-7.5,-2.593571558726E-14,0.));
#212 = DIRECTION('',(0.678912632019,-0.734219066822,0.));
#213 = DIRECTION('',(-0.734219066822,-0.678912632019,0.));
#214 = ADVANCED_FACE('',(#215),#240,.F.);
#215 = FACE_BOUND('',#216,.F.);
#216 = EDGE_LOOP('',(#217,#227,#233,#234));
#217 = ORIENTED_EDGE('',*,*,#218,.T.);
#218 = EDGE_CURVE('',#219,#221,#223,.T.);
#219 = VERTEX_POINT('',#220);
#220 = CARTESIAN_POINT('',(-3.75,-6.495190528383,0.));
#221 = VERTEX_POINT('',#222);
#222 = CARTESIAN_POINT('',(-3.75,-6.495190528383,4.));
#223 = LINE('',#224,#225);
#224 = CARTESIAN_POINT('',(-3.75,-6.495190528383,0.));
#225 = VECTOR('',#226,1.);
#226 = DIRECTION('',(0.,0.,1.));
#227 = ORIENTED_EDGE('',*,*,#228,.T.);
#228 = EDGE_CURVE('',#221,#189,#229,.T.);
#229 = LINE('',#230,#231);
#230 = CARTESIAN_POINT('',(-3.75,-6.495190528383,4.));
#231 = VECTOR('',#232,1.);
#232 = DIRECTION('',(-0.955065119689,-0.296396047802,0.));
#233 = ORIENTED_EDGE('',*,*,#196,.F.);
#234 = ORIENTED_EDGE('',*,*,#235,.F.);
#235 = EDGE_CURVE('',#219,#197,#236,.T.);
#236 = LINE('',#237,#238);
#237 = CARTESIAN_POINT('',(-3.75,-6.495190528383,0.));
#238 = VECTOR('',#239,1.);
#239 = DIRECTION('',(-0.955065119689,-0.296396047802,0.));
#240 = PLANE('',#241);
#241 = AXIS2_PLACEMENT_3D('',#242,#243,#244);
#242 = CARTESIAN_POINT('',(-3.75,-6.495190528383,0.));
#243 = DIRECTION('',(0.296396047802,-0.955065119689,0.));
#244 = DIRECTION('',(-0.955065119689,-0.296396047802,0.));
#245 = ADVANCED_FACE('',(#246),#271,.T.);
#246 = FACE_BOUND('',#247,.T.);
#247 = EDGE_LOOP('',(#248,#249,#257,#265));
#248 = ORIENTED_EDGE('',*,*,#218,.T.);
#249 = ORIENTED_EDGE('',*,*,#250,.T.);
#250 = EDGE_CURVE('',#221,#251,#253,.T.);
#251 = VERTEX_POINT('',#252);
#252 = CARTESIAN_POINT('',(-2.002496405077E-17,-23.05608216237,4.));
#253 = LINE('',#254,#255);
#254 = CARTESIAN_POINT('',(-3.75,-6.495190528383,4.));
#255 = VECTOR('',#256,1.);
#256 = DIRECTION('',(0.220846052867,-0.97530867982,0.));
#257 = ORIENTED_EDGE('',*,*,#258,.F.);
#258 = EDGE_CURVE('',#259,#251,#261,.T.);
#259 = VERTEX_POINT('',#260);
#260 = CARTESIAN_POINT('',(-2.002496405077E-17,-23.05608216237,0.));
#261 = LINE('',#262,#263);
#262 = CARTESIAN_POINT('',(-2.002496405077E-17,-23.05608216237,0.));
#263 = VECTOR('',#264,1.);
#264 = DIRECTION('',(0.,0.,1.));
#265 = ORIENTED_EDGE('',*,*,#266,.F.);
#266 = EDGE_CURVE('',#219,#259,#267,.T.);
#267 = LINE('',#268,#269);
#268 = CARTESIAN_POINT('',(-3.75,-6.495190528383,0.));
#269 = VECTOR('',#270,1.);
#270 = DIRECTION('',(0.220846052867,-0.97530867982,0.));
#271 = PLANE('',#272);
#272 = AXIS2_PLACEMENT_3D('',#273,#274,#275);
#273 = CARTESIAN_POINT('',(-3.75,-6.495190528383,0.));
#274 = DIRECTION('',(0.97530867982,0.220846052867,0.));
#275 = DIRECTION('',(0.220846052867,-0.97530867982,0.));
#276 = ADVANCED_FACE('',(#277),#302,.F.);
#277 = FACE_BOUND('',#278,.F.);
#278 = EDGE_LOOP('',(#279,#289,#295,#296));
#279 = ORIENTED_EDGE('',*,*,#280,.T.);
#280 = EDGE_CURVE('',#281,#283,#285,.T.);
#281 = VERTEX_POINT('',#282);
#282 = CARTESIAN_POINT('',(3.75,-6.495190528383,0.));
#283 = VERTEX_POINT('',#284);
#284 = CARTESIAN_POINT('',(3.75,-6.495190528383,4.));
#285 = LINE('',#286,#287);
#286 = CARTESIAN_POINT('',(3.75,-6.495190528383,0.));
#287 = VECTOR('',#288,1.);
#288 = DIRECTION('',(0.,0.,1.));
#289 = ORIENTED_EDGE('',*,*,#290,.T.);
#290 = EDGE_CURVE('',#283,#251,#291,.T.);
#291 = LINE('',#292,#293);
#292 = CARTESIAN_POINT('',(3.75,-6.495190528383,4.));
#293 = VECTOR('',#294,1.);
#294 = DIRECTION('',(-0.220846052867,-0.97530867982,0.));
#295 = ORIENTED_EDGE('',*,*,#258,.F.);
#296 = ORIENTED_EDGE('',*,*,#297,.F.);
#297 = EDGE_CURVE('',#281,#259,#298,.T.);
#298 = LINE('',#299,#300);
#299 = CARTESIAN_POINT('',(3.75,-6.495190528383,0.));
#300 = VECTOR('',#301,1.);
#301 = DIRECTION('',(-0.220846052867,-0.97530867982,0.));
#302 = PLANE('',#303);
#303 = AXIS2_PLACEMENT_3D('',#304,#305,#306);
#304 = CARTESIAN_POINT('',(3.75,-6.495190528383,0.));
#305 = DIRECTION('',(0.97530867982,-0.220846052867,0.));
#306 = DIRECTION('',(-0.220846052867,-0.97530867982,0.));
#307 = ADVANCED_FACE('',(#308),#333,.T.);
#308 = FACE_BOUND('',#309,.T.);
#309 = EDGE_LOOP('',(#310,#311,#319,#327));
#310 = ORIENTED_EDGE('',*,*,#280,.T.);
#311 = ORIENTED_EDGE('',*,*,#312,.T.);
#312 = EDGE_CURVE('',#283,#313,#315,.T.);
#313 = VERTEX_POINT('',#314);
#314 = CARTESIAN_POINT('',(19.967152864354,-11.52804108118,4.));
#315 = LINE('',#316,#317);
#316 = CARTESIAN_POINT('',(3.75,-6.495190528383,4.));
#317 = VECTOR('',#318,1.);
#318 = DIRECTION('',(0.95506511969,-0.296396047802,0.));
#319 = ORIENTED_EDGE('',*,*,#320,.F.);
#320 = EDGE_CURVE('',#321,#313,#323,.T.);
#321 = VERTEX_POINT('',#322);
#322 = CARTESIAN_POINT('',(19.967152864354,-11.52804108118,0.));
#323 = LINE('',#324,#325);
#324 = CARTESIAN_POINT('',(19.967152864354,-11.52804108118,0.));
#325 = VECTOR('',#326,1.);
#326 = DIRECTION('',(0.,0.,1.));
#327 = ORIENTED_EDGE('',*,*,#328,.F.);
#328 = EDGE_CURVE('',#281,#321,#329,.T.);
#329 = LINE('',#330,#331);
#330 = CARTESIAN_POINT('',(3.75,-6.495190528383,0.));
#331 = VECTOR('',#332,1.);
#332 = DIRECTION('',(0.95506511969,-0.296396047802,0.));
#333 = PLANE('',#334);
#334 = AXIS2_PLACEMENT_3D('',#335,#336,#337);
#335 = CARTESIAN_POINT('',(3.75,-6.495190528383,0.));
#336 = DIRECTION('',(0.296396047802,0.95506511969,0.));
#337 = DIRECTION('',(0.95506511969,-0.296396047802,0.));
#338 = ADVANCED_FACE('',(#339),#364,.F.);
#339 = FACE_BOUND('',#340,.F.);
#340 = EDGE_LOOP('',(#341,#351,#357,#358));
#341 = ORIENTED_EDGE('',*,*,#342,.T.);
#342 = EDGE_CURVE('',#343,#345,#347,.T.);
#343 = VERTEX_POINT('',#344);
#344 = CARTESIAN_POINT('',(7.5,7.815441008206E-14,0.));
#345 = VERTEX_POINT('',#346);
#346 = CARTESIAN_POINT('',(7.5,7.815441008206E-14,4.));
#347 = LINE('',#348,#349);
#348 = CARTESIAN_POINT('',(7.5,7.815441008206E-14,0.));
#349 = VECTOR('',#350,1.);
#350 = DIRECTION('',(0.,0.,1.));
#351 = ORIENTED_EDGE('',*,*,#352,.T.);
#352 = EDGE_CURVE('',#345,#313,#353,.T.);
#353 = LINE('',#354,#355);
#354 = CARTESIAN_POINT('',(7.5,7.815441008206E-14,4.));
#355 = VECTOR('',#356,1.);
#356 = DIRECTION('',(0.734219066822,-0.678912632019,0.));
#357 = ORIENTED_EDGE('',*,*,#320,.F.);
#358 = ORIENTED_EDGE('',*,*,#359,.F.);
#359 = EDGE_CURVE('',#343,#321,#360,.T.);
#360 = LINE('',#361,#362);
#361 = CARTESIAN_POINT('',(7.5,7.815441008206E-14,0.));
#362 = VECTOR('',#363,1.);
#363 = DIRECTION('',(0.734219066822,-0.678912632019,0.));
#364 = PLANE('',#365);
#365 = AXIS2_PLACEMENT_3D('',#366,#367,#368);
#366 = CARTESIAN_POINT('',(7.5,7.815441008206E-14,0.));
#367 = DIRECTION('',(0.678912632019,0.734219066822,0.));
#368 = DIRECTION('',(0.734219066822,-0.678912632019,0.));
#369 = ADVANCED_FACE('',(#370),#395,.T.);
#370 = FACE_BOUND('',#371,.T.);
#371 = EDGE_LOOP('',(#372,#373,#381,#389));
#372 = ORIENTED_EDGE('',*,*,#342,.T.);
#373 = ORIENTED_EDGE('',*,*,#374,.T.);
#374 = EDGE_CURVE('',#345,#375,#377,.T.);
#375 = VERTEX_POINT('',#376);
#376 = CARTESIAN_POINT('',(19.967152864354,11.528041081185,4.));
#377 = LINE('',#378,#379);
#378 = CARTESIAN_POINT('',(7.5,7.815441008206E-14,4.));
#379 = VECTOR('',#380,1.);
#380 = DIRECTION('',(0.734219066822,0.678912632019,0.));
#381 = ORIENTED_EDGE('',*,*,#382,.F.);
#382 = EDGE_CURVE('',#383,#375,#385,.T.);
#383 = VERTEX_POINT('',#384);
#384 = CARTESIAN_POINT('',(19.967152864354,11.528041081185,0.));
#385 = LINE('',#386,#387);
#386 = CARTESIAN_POINT('',(19.967152864354,11.528041081185,0.));
#387 = VECTOR('',#388,1.);
#388 = DIRECTION('',(0.,0.,1.));
#389 = ORIENTED_EDGE('',*,*,#390,.F.);
#390 = EDGE_CURVE('',#343,#383,#391,.T.);
#391 = LINE('',#392,#393);
#392 = CARTESIAN_POINT('',(7.5,7.815441008206E-14,0.));
#393 = VECTOR('',#394,1.);
#394 = DIRECTION('',(0.734219066822,0.678912632019,0.));
#395 = PLANE('',#396);
#396 = AXIS2_PLACEMENT_3D('',#397,#398,#399);
#397 = CARTESIAN_POINT('',(7.5,7.815441008206E-14,0.));
#398 = DIRECTION('',(-0.678912632019,0.734219066822,0.));
#399 = DIRECTION('',(0.734219066822,0.678912632019,0.));
#400 = ADVANCED_FACE('',(#401),#417,.F.);
#401 = FACE_BOUND('',#402,.F.);
#402 = EDGE_LOOP('',(#403,#404,#410,#411));
#403 = ORIENTED_EDGE('',*,*,#54,.T.);
#404 = ORIENTED_EDGE('',*,*,#405,.T.);
#405 = EDGE_CURVE('',#57,#375,#406,.T.);
#406 = LINE('',#407,#408);
#407 = CARTESIAN_POINT('',(3.75,6.495190528383,4.));
#408 = VECTOR('',#409,1.);
#409 = DIRECTION('',(0.955065119689,0.296396047802,0.));
#410 = ORIENTED_EDGE('',*,*,#382,.F.);
#411 = ORIENTED_EDGE('',*,*,#412,.F.);
#412 = EDGE_CURVE('',#55,#383,#413,.T.);
#413 = LINE('',#414,#415);
#414 = CARTESIAN_POINT('',(3.75,6.495190528383,0.));
#415 = VECTOR('',#416,1.);
#416 = DIRECTION('',(0.955065119689,0.296396047802,0.));
#417 = PLANE('',#418);
#418 = AXIS2_PLACEMENT_3D('',#419,#420,#421);
#419 = CARTESIAN_POINT('',(3.75,6.495190528383,0.));
#420 = DIRECTION('',(-0.296396047802,0.955065119689,0.));
#421 = DIRECTION('',(0.955065119689,0.296396047802,0.));
#422 = ADVANCED_FACE('',(#423),#450,.F.);
#423 = FACE_BOUND('',#424,.T.);
#424 = EDGE_LOOP('',(#425,#435,#442,#443));
#425 = ORIENTED_EDGE('',*,*,#426,.T.);
#426 = EDGE_CURVE('',#427,#429,#431,.T.);
#427 = VERTEX_POINT('',#428);
#428 = CARTESIAN_POINT('',(1.5,45.,0.));
#429 = VERTEX_POINT('',#430);
#430 = CARTESIAN_POINT('',(1.5,45.,4.));
#431 = LINE('',#432,#433);
#432 = CARTESIAN_POINT('',(1.5,45.,0.));
#433 = VECTOR('',#434,1.);
#434 = DIRECTION('',(0.,0.,1.));
#435 = ORIENTED_EDGE('',*,*,#436,.T.);
#436 = EDGE_CURVE('',#429,#429,#437,.T.);
#437 = CIRCLE('',#438,1.5);
#438 = AXIS2_PLACEMENT_3D('',#439,#440,#441);
#439 = CARTESIAN_POINT('',(0.,45.,4.));
#440 = DIRECTION('',(0.,0.,1.));
#441 = DIRECTION('',(1.,0.,0.));
#442 = ORIENTED_EDGE('',*,*,#426,.F.);
#443 = ORIENTED_EDGE('',*,*,#444,.F.);
#444 = EDGE_CURVE('',#427,#427,#445,.T.);
#445 = CIRCLE('',#446,1.5);
#446 = AXIS2_PLACEMENT_3D('',#447,#448,#449);
#447 = CARTESIAN_POINT('',(0.,45.,0.));
#448 = DIRECTION('',(0.,0.,1.));
#449 = DIRECTION('',(1.,0.,0.));
#450 = CYLINDRICAL_SURFACE('',#451,1.5);
#451 = AXIS2_PLACEMENT_3D('',#452,#453,#454);
#452 = CARTESIAN_POINT('',(0.,45.,0.));
#453 = DIRECTION('',(-0.,-0.,-1.));
#454 = DIRECTION('',(1.,0.,0.));
#455 = ADVANCED_FACE('',(#456),#483,.F.);
#456 = FACE_BOUND('',#457,.T.);
#457 = EDGE_LOOP('',(#458,#468,#475,#476));
#458 = ORIENTED_EDGE('',*,*,#459,.T.);
#459 = EDGE_CURVE('',#460,#462,#464,.T.);
#460 = VERTEX_POINT('',#461);
#461 = CARTESIAN_POINT('',(1.5,-45.,0.));
#462 = VERTEX_POINT('',#463);
#463 = CARTESIAN_POINT('',(1.5,-45.,4.));
#464 = LINE('',#465,#466);
#465 = CARTESIAN_POINT('',(1.5,-45.,0.));
#466 = VECTOR('',#467,1.);
#467 = DIRECTION('',(0.,0.,1.));
#468 = ORIENTED_EDGE('',*,*,#469,.T.);
#469 = EDGE_CURVE('',#462,#462,#470,.T.);
#470 = CIRCLE('',#471,1.5);
#471 = AXIS2_PLACEMENT_3D('',#472,#473,#474);
#472 = CARTESIAN_POINT('',(0.,-45.,4.));
#473 = DIRECTION('',(0.,0.,1.));
#474 = DIRECTION('',(1.,0.,0.));
#475 = ORIENTED_EDGE('',*,*,#459,.F.);
#476 = ORIENTED_EDGE('',*,*,#477,.F.);
#477 = EDGE_CURVE('',#460,#460,#478,.T.);
#478 = CIRCLE('',#479,1.5);
#479 = AXIS2_PLACEMENT_3D('',#480,#481,#482);
#480 = CARTESIAN_POINT('',(0.,-45.,0.));
#481 = DIRECTION('',(0.,0.,1.));
#482 = DIRECTION('',(1.,0.,0.));
#483 = CYLINDRICAL_SURFACE('',#484,1.5);
#484 = AXIS2_PLACEMENT_3D('',#485,#486,#487);
#485 = CARTESIAN_POINT('',(0.,-45.,0.));
#486 = DIRECTION('',(-0.,-0.,-1.));
#487 = DIRECTION('',(1.,0.,0.));
#488 = ADVANCED_FACE('',(#489,#492,#506,#509),#512,.F.);
#489 = FACE_BOUND('',#490,.F.);
#490 = EDGE_LOOP('',(#491));
#491 = ORIENTED_EDGE('',*,*,#39,.T.);
#492 = FACE_BOUND('',#493,.T.);
#493 = EDGE_LOOP('',(#494,#495,#496,#497,#498,#499,#500,#501,#502,#503,
    #504,#505));
#494 = ORIENTED_EDGE('',*,*,#80,.T.);
#495 = ORIENTED_EDGE('',*,*,#111,.F.);
#496 = ORIENTED_EDGE('',*,*,#142,.T.);
#497 = ORIENTED_EDGE('',*,*,#173,.T.);
#498 = ORIENTED_EDGE('',*,*,#204,.T.);
#499 = ORIENTED_EDGE('',*,*,#235,.F.);
#500 = ORIENTED_EDGE('',*,*,#266,.T.);
#501 = ORIENTED_EDGE('',*,*,#297,.F.);
#502 = ORIENTED_EDGE('',*,*,#328,.T.);
#503 = ORIENTED_EDGE('',*,*,#359,.F.);
#504 = ORIENTED_EDGE('',*,*,#390,.T.);
#505 = ORIENTED_EDGE('',*,*,#412,.F.);
#506 = FACE_BOUND('',#507,.T.);
#507 = EDGE_LOOP('',(#508));
#508 = ORIENTED_EDGE('',*,*,#444,.T.);
#509 = FACE_BOUND('',#510,.T.);
#510 = EDGE_LOOP('',(#511));
#511 = ORIENTED_EDGE('',*,*,#477,.T.);
#512 = PLANE('',#513);
#513 = AXIS2_PLACEMENT_3D('',#514,#515,#516);
#514 = CARTESIAN_POINT('',(-1.94064724006E-15,1.304898375681E-14,0.));
#515 = DIRECTION('',(0.,0.,1.));
#516 = DIRECTION('',(1.,0.,0.));
#517 = ADVANCED_FACE('',(#518,#521,#535,#538),#541,.T.);
#518 = FACE_BOUND('',#519,.T.);
#519 = EDGE_LOOP('',(#520));
#520 = ORIENTED_EDGE('',*,*,#31,.T.);
#521 = FACE_BOUND('',#522,.F.);
#522 = EDGE_LOOP('',(#523,#524,#525,#526,#527,#528,#529,#530,#531,#532,
    #533,#534));
#523 = ORIENTED_EDGE('',*,*,#64,.T.);
#524 = ORIENTED_EDGE('',*,*,#104,.F.);
#525 = ORIENTED_EDGE('',*,*,#126,.T.);
#526 = ORIENTED_EDGE('',*,*,#157,.T.);
#527 = ORIENTED_EDGE('',*,*,#188,.T.);
#528 = ORIENTED_EDGE('',*,*,#228,.F.);
#529 = ORIENTED_EDGE('',*,*,#250,.T.);
#530 = ORIENTED_EDGE('',*,*,#290,.F.);
#531 = ORIENTED_EDGE('',*,*,#312,.T.);
#532 = ORIENTED_EDGE('',*,*,#352,.F.);
#533 = ORIENTED_EDGE('',*,*,#374,.T.);
#534 = ORIENTED_EDGE('',*,*,#405,.F.);
#535 = FACE_BOUND('',#536,.F.);
#536 = EDGE_LOOP('',(#537));
#537 = ORIENTED_EDGE('',*,*,#436,.T.);
#538 = FACE_BOUND('',#539,.F.);
#539 = EDGE_LOOP('',(#540));
#540 = ORIENTED_EDGE('',*,*,#469,.T.);
#541 = PLANE('',#542);
#542 = AXIS2_PLACEMENT_3D('',#543,#544,#545);
#543 = CARTESIAN_POINT('',(-1.94064724006E-15,1.304898375681E-14,4.));
#544 = DIRECTION('',(0.,0.,1.));
#545 = DIRECTION('',(1.,0.,0.));
#546 = ( GEOMETRIC_REPRESENTATION_CONTEXT(3) 
GLOBAL_UNCERTAINTY_ASSIGNED_CONTEXT((#550)) GLOBAL_UNIT_ASSIGNED_CONTEXT
((#547,#548,#549)) REPRESENTATION_CONTEXT('Context #1',
  '3D Context with UNIT and UNCERTAINTY') );
#547 = ( LENGTH_UNIT() NAMED_UNIT(*) SI_UNIT(.MILLI.,.METRE.) );
#548 = ( NAMED_UNIT(*) PLANE_ANGLE_UNIT() SI_UNIT($,.RADIAN.) );
#549 = ( NAMED_UNIT(*) SI_UNIT($,.STERADIAN.) SOLID_ANGLE_UNIT() );
#550 = UNCERTAINTY_MEASURE_WITH_UNIT(LENGTH_MEASURE(1.E-07),#547,
  'distance_accuracy_value','confusion accuracy');
#551 = PRODUCT_RELATED_PRODUCT_CATEGORY('part',$,(#7));
#552 = MECHANICAL_DESIGN_GEOMETRIC_PRESENTATION_REPRESENTATION('',(#553)
  ,#546);
#553 = STYLED_ITEM('color',(#554),#15);
#554 = PRESENTATION_STYLE_ASSIGNMENT((#555,#561));
#555 = SURFACE_STYLE_USAGE(.BOTH.,#556);
#556 = SURFACE_SIDE_STYLE('',(#557));
#557 = SURFACE_STYLE_FILL_AREA(#558);
#558 = FILL_AREA_STYLE('',(#559));
#559 = FILL_AREA_STYLE_COLOUR('',#560);
#560 = COLOUR_RGB('',0.447059003357,0.474510015008,0.501960993452);
#561 = CURVE_STYLE('',#562,POSITIVE_LENGTH_MEASURE(0.1),#563);
#562 = DRAUGHTING_PRE_DEFINED_CURVE_FONT('continuous');
#563 = COLOUR_RGB('',9.803921802644E-02,9.803921802644E-02,
  9.803921802644E-02);
ENDSEC;
END-ISO-10303-21;
