ISO-10303-21;
HEADER;
FILE_DESCRIPTION(('FreeCAD Model'),'2;1');
FILE_NAME('Open CASCADE Shape Model','2025-11-11T17:45:04',(''),(''),
  'Open CASCADE STEP processor 7.9','FreeCAD','Unknown');
FILE_SCHEMA(('AUTOMOTIVE_DESIGN { 1 0 10303 214 1 1 1 1 }'));
ENDSEC;
DATA;
#1 = APPLICATION_PROTOCOL_DEFINITION('international standard',
  'automotive_design',2000,#2);
#2 = APPLICATION_CONTEXT(
  'core data for automotive mechanical design processes');
#3 = SHAPE_DEFINITION_REPRESENTATION(#4,#10);
#4 = PRODUCT_DEFINITION_SHAPE('','',#5);
#5 = PRODUCT_DEFINITION('design','',#6,#9);
#6 = PRODUCT_DEFINITION_FORMATION('','',#7);
#7 = PRODUCT('coulisseur002','coulisseur002','',(#8));
#8 = PRODUCT_CONTEXT('',#2,'mechanical');
#9 = PRODUCT_DEFINITION_CONTEXT('part definition',#2,'design');
#10 = SHAPE_REPRESENTATION('',(#11,#15),#19);
#11 = AXIS2_PLACEMENT_3D('',#12,#13,#14);
#12 = CARTESIAN_POINT('',(0.,0.,0.));
#13 = DIRECTION('',(0.,0.,1.));
#14 = DIRECTION('',(1.,0.,-0.));
#15 = AXIS2_PLACEMENT_3D('',#16,#17,#18);
#16 = CARTESIAN_POINT('',(0.,0.,0.));
#17 = DIRECTION('',(0.,0.,1.));
#18 = DIRECTION('',(1.,0.,0.));
#19 = ( GEOMETRIC_REPRESENTATION_CONTEXT(3) 
GLOBAL_UNCERTAINTY_ASSIGNED_CONTEXT((#23)) GLOBAL_UNIT_ASSIGNED_CONTEXT(
(#20,#21,#22)) REPRESENTATION_CONTEXT('Context #1',
  '3D Context with UNIT and UNCERTAINTY') );
#20 = ( LENGTH_UNIT() NAMED_UNIT(*) SI_UNIT(.MILLI.,.METRE.) );
#21 = ( NAMED_UNIT(*) PLANE_ANGLE_UNIT() SI_UNIT($,.RADIAN.) );
#22 = ( NAMED_UNIT(*) SI_UNIT($,.STERADIAN.) SOLID_ANGLE_UNIT() );
#23 = UNCERTAINTY_MEASURE_WITH_UNIT(LENGTH_MEASURE(1.E-06),#20,
  'distance_accuracy_value','confusion accuracy');
#24 = PRODUCT_RELATED_PRODUCT_CATEGORY('part',$,(#7));
#25 = SHAPE_DEFINITION_REPRESENTATION(#26,#32);
#26 = PRODUCT_DEFINITION_SHAPE('','',#27);
#27 = PRODUCT_DEFINITION('design','',#28,#31);
#28 = PRODUCT_DEFINITION_FORMATION('','',#29);
#29 = PRODUCT('Body005','Body005','',(#30));
#30 = PRODUCT_CONTEXT('',#2,'mechanical');
#31 = PRODUCT_DEFINITION_CONTEXT('part definition',#2,'design');
#32 = ADVANCED_BREP_SHAPE_REPRESENTATION('',(#11,#33),#1291);
#33 = MANIFOLD_SOLID_BREP('',#34);
#34 = CLOSED_SHELL('',(#35,#315,#346,#371,#396,#420,#444,#469,#494,#518,
    #542,#567,#592,#638,#706,#731,#756,#780,#804,#829,#854,#878,#902,
    #927,#952,#976,#1000,#1025,#1050,#1096,#1120,#1145,#1170,#1187,#1227
    ,#1243,#1259,#1275));
#35 = ADVANCED_FACE('',(#36),#310,.T.);
#36 = FACE_BOUND('',#37,.T.);
#37 = EDGE_LOOP('',(#38,#48,#57,#65,#74,#82,#91,#99,#108,#116,#125,#133,
    #142,#150,#159,#167,#176,#184,#193,#201,#210,#218,#227,#235,#244,
    #252,#261,#269,#278,#286,#295,#303));
#38 = ORIENTED_EDGE('',*,*,#39,.F.);
#39 = EDGE_CURVE('',#40,#42,#44,.T.);
#40 = VERTEX_POINT('',#41);
#41 = CARTESIAN_POINT('',(15.,9.1,16.));
#42 = VERTEX_POINT('',#43);
#43 = CARTESIAN_POINT('',(15.,9.1,19.));
#44 = LINE('',#45,#46);
#45 = CARTESIAN_POINT('',(15.,9.1,15.));
#46 = VECTOR('',#47,1.);
#47 = DIRECTION('',(0.,2.22044604925E-16,1.));
#48 = ORIENTED_EDGE('',*,*,#49,.T.);
#49 = EDGE_CURVE('',#40,#50,#52,.T.);
#50 = VERTEX_POINT('',#51);
#51 = CARTESIAN_POINT('',(15.,10.1,15.));
#52 = CIRCLE('',#53,1.);
#53 = AXIS2_PLACEMENT_3D('',#54,#55,#56);
#54 = CARTESIAN_POINT('',(15.,10.1,16.));
#55 = DIRECTION('',(1.,0.,-0.));
#56 = DIRECTION('',(0.,0.,1.));
#57 = ORIENTED_EDGE('',*,*,#58,.F.);
#58 = EDGE_CURVE('',#59,#50,#61,.T.);
#59 = VERTEX_POINT('',#60);
#60 = CARTESIAN_POINT('',(15.,14.1,15.));
#61 = LINE('',#62,#63);
#62 = CARTESIAN_POINT('',(15.,15.1,15.));
#63 = VECTOR('',#64,1.);
#64 = DIRECTION('',(0.,-1.,2.22044604925E-16));
#65 = ORIENTED_EDGE('',*,*,#66,.T.);
#66 = EDGE_CURVE('',#59,#67,#69,.T.);
#67 = VERTEX_POINT('',#68);
#68 = CARTESIAN_POINT('',(15.,15.1,14.));
#69 = CIRCLE('',#70,1.);
#70 = AXIS2_PLACEMENT_3D('',#71,#72,#73);
#71 = CARTESIAN_POINT('',(15.,14.1,14.));
#72 = DIRECTION('',(-1.,0.,0.));
#73 = DIRECTION('',(0.,0.,1.));
#74 = ORIENTED_EDGE('',*,*,#75,.F.);
#75 = EDGE_CURVE('',#76,#67,#78,.T.);
#76 = VERTEX_POINT('',#77);
#77 = CARTESIAN_POINT('',(15.,15.1,11.8));
#78 = LINE('',#79,#80);
#79 = CARTESIAN_POINT('',(15.,15.1,0.));
#80 = VECTOR('',#81,1.);
#81 = DIRECTION('',(0.,0.,1.));
#82 = ORIENTED_EDGE('',*,*,#83,.T.);
#83 = EDGE_CURVE('',#76,#84,#86,.T.);
#84 = VERTEX_POINT('',#85);
#85 = CARTESIAN_POINT('',(15.,14.1,10.8));
#86 = CIRCLE('',#87,1.);
#87 = AXIS2_PLACEMENT_3D('',#88,#89,#90);
#88 = CARTESIAN_POINT('',(15.,14.1,11.8));
#89 = DIRECTION('',(-1.,0.,0.));
#90 = DIRECTION('',(0.,0.,1.));
#91 = ORIENTED_EDGE('',*,*,#92,.F.);
#92 = EDGE_CURVE('',#93,#84,#95,.T.);
#93 = VERTEX_POINT('',#94);
#94 = CARTESIAN_POINT('',(15.,6.9,10.8));
#95 = LINE('',#96,#97);
#96 = CARTESIAN_POINT('',(15.,5.9,10.8));
#97 = VECTOR('',#98,1.);
#98 = DIRECTION('',(0.,1.,0.));
#99 = ORIENTED_EDGE('',*,*,#100,.F.);
#100 = EDGE_CURVE('',#101,#93,#103,.T.);
#101 = VERTEX_POINT('',#102);
#102 = CARTESIAN_POINT('',(15.,5.9,9.8));
#103 = CIRCLE('',#104,1.);
#104 = AXIS2_PLACEMENT_3D('',#105,#106,#107);
#105 = CARTESIAN_POINT('',(15.,6.9,9.8));
#106 = DIRECTION('',(-1.,0.,0.));
#107 = DIRECTION('',(0.,0.,1.));
#108 = ORIENTED_EDGE('',*,*,#109,.F.);
#109 = EDGE_CURVE('',#110,#101,#112,.T.);
#110 = VERTEX_POINT('',#111);
#111 = CARTESIAN_POINT('',(15.,5.9,6.));
#112 = LINE('',#113,#114);
#113 = CARTESIAN_POINT('',(15.,5.9,5.));
#114 = VECTOR('',#115,1.);
#115 = DIRECTION('',(0.,0.,1.));
#116 = ORIENTED_EDGE('',*,*,#117,.F.);
#117 = EDGE_CURVE('',#118,#110,#120,.T.);
#118 = VERTEX_POINT('',#119);
#119 = CARTESIAN_POINT('',(15.,4.9,5.));
#120 = CIRCLE('',#121,1.);
#121 = AXIS2_PLACEMENT_3D('',#122,#123,#124);
#122 = CARTESIAN_POINT('',(15.,4.9,6.));
#123 = DIRECTION('',(1.,0.,-0.));
#124 = DIRECTION('',(0.,0.,1.));
#125 = ORIENTED_EDGE('',*,*,#126,.F.);
#126 = EDGE_CURVE('',#127,#118,#129,.T.);
#127 = VERTEX_POINT('',#128);
#128 = CARTESIAN_POINT('',(15.,-4.,5.));
#129 = LINE('',#130,#131);
#130 = CARTESIAN_POINT('',(15.,-20.,5.));
#131 = VECTOR('',#132,1.);
#132 = DIRECTION('',(0.,1.,0.));
#133 = ORIENTED_EDGE('',*,*,#134,.T.);
#134 = EDGE_CURVE('',#127,#135,#137,.T.);
#135 = VERTEX_POINT('',#136);
#136 = CARTESIAN_POINT('',(15.,-5.,6.));
#137 = CIRCLE('',#138,1.);
#138 = AXIS2_PLACEMENT_3D('',#139,#140,#141);
#139 = CARTESIAN_POINT('',(15.,-4.,6.));
#140 = DIRECTION('',(-1.,0.,0.));
#141 = DIRECTION('',(0.,0.,-1.));
#142 = ORIENTED_EDGE('',*,*,#143,.T.);
#143 = EDGE_CURVE('',#135,#144,#146,.T.);
#144 = VERTEX_POINT('',#145);
#145 = CARTESIAN_POINT('',(15.,-5.,9.8));
#146 = LINE('',#147,#148);
#147 = CARTESIAN_POINT('',(15.,-5.,5.));
#148 = VECTOR('',#149,1.);
#149 = DIRECTION('',(0.,0.,1.));
#150 = ORIENTED_EDGE('',*,*,#151,.F.);
#151 = EDGE_CURVE('',#152,#144,#154,.T.);
#152 = VERTEX_POINT('',#153);
#153 = CARTESIAN_POINT('',(15.,-6.,10.8));
#154 = CIRCLE('',#155,1.);
#155 = AXIS2_PLACEMENT_3D('',#156,#157,#158);
#156 = CARTESIAN_POINT('',(15.,-6.,9.8));
#157 = DIRECTION('',(-1.,0.,0.));
#158 = DIRECTION('',(0.,0.,-1.));
#159 = ORIENTED_EDGE('',*,*,#160,.F.);
#160 = EDGE_CURVE('',#161,#152,#163,.T.);
#161 = VERTEX_POINT('',#162);
#162 = CARTESIAN_POINT('',(15.,-14.1,10.8));
#163 = LINE('',#164,#165);
#164 = CARTESIAN_POINT('',(15.,-15.1,10.8));
#165 = VECTOR('',#166,1.);
#166 = DIRECTION('',(0.,1.,0.));
#167 = ORIENTED_EDGE('',*,*,#168,.T.);
#168 = EDGE_CURVE('',#161,#169,#171,.T.);
#169 = VERTEX_POINT('',#170);
#170 = CARTESIAN_POINT('',(15.,-15.1,11.8));
#171 = CIRCLE('',#172,1.);
#172 = AXIS2_PLACEMENT_3D('',#173,#174,#175);
#173 = CARTESIAN_POINT('',(15.,-14.1,11.8));
#174 = DIRECTION('',(-1.,0.,0.));
#175 = DIRECTION('',(0.,0.,1.));
#176 = ORIENTED_EDGE('',*,*,#177,.T.);
#177 = EDGE_CURVE('',#169,#178,#180,.T.);
#178 = VERTEX_POINT('',#179);
#179 = CARTESIAN_POINT('',(15.,-15.1,14.));
#180 = LINE('',#181,#182);
#181 = CARTESIAN_POINT('',(15.,-15.1,0.));
#182 = VECTOR('',#183,1.);
#183 = DIRECTION('',(0.,0.,1.));
#184 = ORIENTED_EDGE('',*,*,#185,.F.);
#185 = EDGE_CURVE('',#186,#178,#188,.T.);
#186 = VERTEX_POINT('',#187);
#187 = CARTESIAN_POINT('',(15.,-14.1,15.));
#188 = CIRCLE('',#189,1.);
#189 = AXIS2_PLACEMENT_3D('',#190,#191,#192);
#190 = CARTESIAN_POINT('',(15.,-14.1,14.));
#191 = DIRECTION('',(1.,-0.,0.));
#192 = DIRECTION('',(0.,0.,-1.));
#193 = ORIENTED_EDGE('',*,*,#194,.T.);
#194 = EDGE_CURVE('',#186,#195,#197,.T.);
#195 = VERTEX_POINT('',#196);
#196 = CARTESIAN_POINT('',(15.,-10.1,15.));
#197 = LINE('',#198,#199);
#198 = CARTESIAN_POINT('',(15.,-15.1,15.));
#199 = VECTOR('',#200,1.);
#200 = DIRECTION('',(0.,1.,-2.22044604925E-16));
#201 = ORIENTED_EDGE('',*,*,#202,.T.);
#202 = EDGE_CURVE('',#195,#203,#205,.T.);
#203 = VERTEX_POINT('',#204);
#204 = CARTESIAN_POINT('',(15.,-9.1,16.));
#205 = CIRCLE('',#206,1.);
#206 = AXIS2_PLACEMENT_3D('',#207,#208,#209);
#207 = CARTESIAN_POINT('',(15.,-10.1,16.));
#208 = DIRECTION('',(1.,-0.,0.));
#209 = DIRECTION('',(0.,0.,-1.));
#210 = ORIENTED_EDGE('',*,*,#211,.F.);
#211 = EDGE_CURVE('',#212,#203,#214,.T.);
#212 = VERTEX_POINT('',#213);
#213 = CARTESIAN_POINT('',(15.,-9.1,19.));
#214 = LINE('',#215,#216);
#215 = CARTESIAN_POINT('',(15.,-9.1,20.));
#216 = VECTOR('',#217,1.);
#217 = DIRECTION('',(0.,-2.22044604925E-16,-1.));
#218 = ORIENTED_EDGE('',*,*,#219,.T.);
#219 = EDGE_CURVE('',#212,#220,#222,.T.);
#220 = VERTEX_POINT('',#221);
#221 = CARTESIAN_POINT('',(15.,-10.1,20.));
#222 = CIRCLE('',#223,1.);
#223 = AXIS2_PLACEMENT_3D('',#224,#225,#226);
#224 = CARTESIAN_POINT('',(15.,-10.1,19.));
#225 = DIRECTION('',(1.,0.,-0.));
#226 = DIRECTION('',(0.,0.,1.));
#227 = ORIENTED_EDGE('',*,*,#228,.F.);
#228 = EDGE_CURVE('',#229,#220,#231,.T.);
#229 = VERTEX_POINT('',#230);
#230 = CARTESIAN_POINT('',(15.,-19.,20.));
#231 = LINE('',#232,#233);
#232 = CARTESIAN_POINT('',(15.,-15.1,20.));
#233 = VECTOR('',#234,1.);
#234 = DIRECTION('',(0.,1.,-2.22044604925E-16));
#235 = ORIENTED_EDGE('',*,*,#236,.F.);
#236 = EDGE_CURVE('',#237,#229,#239,.T.);
#237 = VERTEX_POINT('',#238);
#238 = CARTESIAN_POINT('',(15.,-20.,19.));
#239 = CIRCLE('',#240,1.);
#240 = AXIS2_PLACEMENT_3D('',#241,#242,#243);
#241 = CARTESIAN_POINT('',(15.,-19.,19.));
#242 = DIRECTION('',(-1.,0.,0.));
#243 = DIRECTION('',(0.,0.,1.));
#244 = ORIENTED_EDGE('',*,*,#245,.F.);
#245 = EDGE_CURVE('',#246,#237,#248,.T.);
#246 = VERTEX_POINT('',#247);
#247 = CARTESIAN_POINT('',(15.,-20.,1.));
#248 = LINE('',#249,#250);
#249 = CARTESIAN_POINT('',(15.,-20.,0.));
#250 = VECTOR('',#251,1.);
#251 = DIRECTION('',(0.,0.,1.));
#252 = ORIENTED_EDGE('',*,*,#253,.F.);
#253 = EDGE_CURVE('',#254,#246,#256,.T.);
#254 = VERTEX_POINT('',#255);
#255 = CARTESIAN_POINT('',(15.,-19.,-2.22044604925E-16));
#256 = CIRCLE('',#257,1.);
#257 = AXIS2_PLACEMENT_3D('',#258,#259,#260);
#258 = CARTESIAN_POINT('',(15.,-19.,1.));
#259 = DIRECTION('',(-1.,0.,0.));
#260 = DIRECTION('',(0.,0.,1.));
#261 = ORIENTED_EDGE('',*,*,#262,.T.);
#262 = EDGE_CURVE('',#254,#263,#265,.T.);
#263 = VERTEX_POINT('',#264);
#264 = CARTESIAN_POINT('',(15.,19.,-2.22044604925E-16));
#265 = LINE('',#266,#267);
#266 = CARTESIAN_POINT('',(15.,-20.,0.));
#267 = VECTOR('',#268,1.);
#268 = DIRECTION('',(0.,1.,0.));
#269 = ORIENTED_EDGE('',*,*,#270,.T.);
#270 = EDGE_CURVE('',#263,#271,#273,.T.);
#271 = VERTEX_POINT('',#272);
#272 = CARTESIAN_POINT('',(15.,20.,1.));
#273 = CIRCLE('',#274,1.);
#274 = AXIS2_PLACEMENT_3D('',#275,#276,#277);
#275 = CARTESIAN_POINT('',(15.,19.,1.));
#276 = DIRECTION('',(1.,-0.,0.));
#277 = DIRECTION('',(0.,0.,-1.));
#278 = ORIENTED_EDGE('',*,*,#279,.T.);
#279 = EDGE_CURVE('',#271,#280,#282,.T.);
#280 = VERTEX_POINT('',#281);
#281 = CARTESIAN_POINT('',(15.,20.,19.));
#282 = LINE('',#283,#284);
#283 = CARTESIAN_POINT('',(15.,20.,0.));
#284 = VECTOR('',#285,1.);
#285 = DIRECTION('',(0.,0.,1.));
#286 = ORIENTED_EDGE('',*,*,#287,.T.);
#287 = EDGE_CURVE('',#280,#288,#290,.T.);
#288 = VERTEX_POINT('',#289);
#289 = CARTESIAN_POINT('',(15.,19.,20.));
#290 = CIRCLE('',#291,1.);
#291 = AXIS2_PLACEMENT_3D('',#292,#293,#294);
#292 = CARTESIAN_POINT('',(15.,19.,19.));
#293 = DIRECTION('',(1.,-0.,0.));
#294 = DIRECTION('',(0.,0.,-1.));
#295 = ORIENTED_EDGE('',*,*,#296,.T.);
#296 = EDGE_CURVE('',#288,#297,#299,.T.);
#297 = VERTEX_POINT('',#298);
#298 = CARTESIAN_POINT('',(15.,10.1,20.));
#299 = LINE('',#300,#301);
#300 = CARTESIAN_POINT('',(15.,15.1,20.));
#301 = VECTOR('',#302,1.);
#302 = DIRECTION('',(0.,-1.,2.22044604925E-16));
#303 = ORIENTED_EDGE('',*,*,#304,.T.);
#304 = EDGE_CURVE('',#297,#42,#305,.T.);
#305 = CIRCLE('',#306,1.);
#306 = AXIS2_PLACEMENT_3D('',#307,#308,#309);
#307 = CARTESIAN_POINT('',(15.,10.1,19.));
#308 = DIRECTION('',(1.,-0.,0.));
#309 = DIRECTION('',(0.,0.,-1.));
#310 = PLANE('',#311);
#311 = AXIS2_PLACEMENT_3D('',#312,#313,#314);
#312 = CARTESIAN_POINT('',(15.,3.E-02,9.505402298851));
#313 = DIRECTION('',(1.,0.,0.));
#314 = DIRECTION('',(0.,0.,1.));
#315 = ADVANCED_FACE('',(#316),#341,.F.);
#316 = FACE_BOUND('',#317,.F.);
#317 = EDGE_LOOP('',(#318,#328,#334,#335));
#318 = ORIENTED_EDGE('',*,*,#319,.F.);
#319 = EDGE_CURVE('',#320,#322,#324,.T.);
#320 = VERTEX_POINT('',#321);
#321 = CARTESIAN_POINT('',(-15.,9.1,19.));
#322 = VERTEX_POINT('',#323);
#323 = CARTESIAN_POINT('',(-15.,9.1,16.));
#324 = LINE('',#325,#326);
#325 = CARTESIAN_POINT('',(-15.,9.1,20.));
#326 = VECTOR('',#327,1.);
#327 = DIRECTION('',(0.,-2.22044604925E-16,-1.));
#328 = ORIENTED_EDGE('',*,*,#329,.F.);
#329 = EDGE_CURVE('',#42,#320,#330,.T.);
#330 = LINE('',#331,#332);
#331 = CARTESIAN_POINT('',(15.,9.1,19.));
#332 = VECTOR('',#333,1.);
#333 = DIRECTION('',(-1.,0.,0.));
#334 = ORIENTED_EDGE('',*,*,#39,.F.);
#335 = ORIENTED_EDGE('',*,*,#336,.F.);
#336 = EDGE_CURVE('',#322,#40,#337,.T.);
#337 = LINE('',#338,#339);
#338 = CARTESIAN_POINT('',(-15.,9.1,16.));
#339 = VECTOR('',#340,1.);
#340 = DIRECTION('',(1.,0.,0.));
#341 = PLANE('',#342);
#342 = AXIS2_PLACEMENT_3D('',#343,#344,#345);
#343 = CARTESIAN_POINT('',(0.,9.1,17.5));
#344 = DIRECTION('',(0.,1.,0.));
#345 = DIRECTION('',(0.,0.,1.));
#346 = ADVANCED_FACE('',(#347),#366,.T.);
#347 = FACE_BOUND('',#348,.T.);
#348 = EDGE_LOOP('',(#349,#358,#364,#365));
#349 = ORIENTED_EDGE('',*,*,#350,.T.);
#350 = EDGE_CURVE('',#322,#351,#353,.T.);
#351 = VERTEX_POINT('',#352);
#352 = CARTESIAN_POINT('',(-15.,10.1,15.));
#353 = CIRCLE('',#354,1.);
#354 = AXIS2_PLACEMENT_3D('',#355,#356,#357);
#355 = CARTESIAN_POINT('',(-15.,10.1,16.));
#356 = DIRECTION('',(1.,0.,-0.));
#357 = DIRECTION('',(0.,0.,1.));
#358 = ORIENTED_EDGE('',*,*,#359,.T.);
#359 = EDGE_CURVE('',#351,#50,#360,.T.);
#360 = LINE('',#361,#362);
#361 = CARTESIAN_POINT('',(-15.,10.1,15.));
#362 = VECTOR('',#363,1.);
#363 = DIRECTION('',(1.,0.,0.));
#364 = ORIENTED_EDGE('',*,*,#49,.F.);
#365 = ORIENTED_EDGE('',*,*,#336,.F.);
#366 = CYLINDRICAL_SURFACE('',#367,1.);
#367 = AXIS2_PLACEMENT_3D('',#368,#369,#370);
#368 = CARTESIAN_POINT('',(-15.,10.1,16.));
#369 = DIRECTION('',(1.,0.,0.));
#370 = DIRECTION('',(0.,-1.,0.));
#371 = ADVANCED_FACE('',(#372),#391,.T.);
#372 = FACE_BOUND('',#373,.F.);
#373 = EDGE_LOOP('',(#374,#375,#376,#385));
#374 = ORIENTED_EDGE('',*,*,#304,.T.);
#375 = ORIENTED_EDGE('',*,*,#329,.T.);
#376 = ORIENTED_EDGE('',*,*,#377,.F.);
#377 = EDGE_CURVE('',#378,#320,#380,.T.);
#378 = VERTEX_POINT('',#379);
#379 = CARTESIAN_POINT('',(-15.,10.1,20.));
#380 = CIRCLE('',#381,1.);
#381 = AXIS2_PLACEMENT_3D('',#382,#383,#384);
#382 = CARTESIAN_POINT('',(-15.,10.1,19.));
#383 = DIRECTION('',(1.,-0.,0.));
#384 = DIRECTION('',(0.,0.,-1.));
#385 = ORIENTED_EDGE('',*,*,#386,.F.);
#386 = EDGE_CURVE('',#297,#378,#387,.T.);
#387 = LINE('',#388,#389);
#388 = CARTESIAN_POINT('',(15.,10.1,20.));
#389 = VECTOR('',#390,1.);
#390 = DIRECTION('',(-1.,0.,0.));
#391 = CYLINDRICAL_SURFACE('',#392,1.);
#392 = AXIS2_PLACEMENT_3D('',#393,#394,#395);
#393 = CARTESIAN_POINT('',(15.,10.1,19.));
#394 = DIRECTION('',(-1.,0.,0.));
#395 = DIRECTION('',(0.,0.,1.));
#396 = ADVANCED_FACE('',(#397),#415,.F.);
#397 = FACE_BOUND('',#398,.F.);
#398 = EDGE_LOOP('',(#399,#407,#408,#409));
#399 = ORIENTED_EDGE('',*,*,#400,.T.);
#400 = EDGE_CURVE('',#401,#351,#403,.T.);
#401 = VERTEX_POINT('',#402);
#402 = CARTESIAN_POINT('',(-15.,14.1,15.));
#403 = LINE('',#404,#405);
#404 = CARTESIAN_POINT('',(-15.,15.1,15.));
#405 = VECTOR('',#406,1.);
#406 = DIRECTION('',(0.,-1.,2.22044604925E-16));
#407 = ORIENTED_EDGE('',*,*,#359,.T.);
#408 = ORIENTED_EDGE('',*,*,#58,.F.);
#409 = ORIENTED_EDGE('',*,*,#410,.F.);
#410 = EDGE_CURVE('',#401,#59,#411,.T.);
#411 = LINE('',#412,#413);
#412 = CARTESIAN_POINT('',(-15.,14.1,15.));
#413 = VECTOR('',#414,1.);
#414 = DIRECTION('',(1.,0.,0.));
#415 = PLANE('',#416);
#416 = AXIS2_PLACEMENT_3D('',#417,#418,#419);
#417 = CARTESIAN_POINT('',(-15.,15.1,15.));
#418 = DIRECTION('',(0.,2.22044604925E-16,1.));
#419 = DIRECTION('',(1.,0.,0.));
#420 = ADVANCED_FACE('',(#421),#439,.T.);
#421 = FACE_BOUND('',#422,.T.);
#422 = EDGE_LOOP('',(#423,#431,#432,#433));
#423 = ORIENTED_EDGE('',*,*,#424,.T.);
#424 = EDGE_CURVE('',#425,#378,#427,.T.);
#425 = VERTEX_POINT('',#426);
#426 = CARTESIAN_POINT('',(-15.,19.,20.));
#427 = LINE('',#428,#429);
#428 = CARTESIAN_POINT('',(-15.,20.,20.));
#429 = VECTOR('',#430,1.);
#430 = DIRECTION('',(0.,-1.,0.));
#431 = ORIENTED_EDGE('',*,*,#386,.F.);
#432 = ORIENTED_EDGE('',*,*,#296,.F.);
#433 = ORIENTED_EDGE('',*,*,#434,.T.);
#434 = EDGE_CURVE('',#288,#425,#435,.T.);
#435 = LINE('',#436,#437);
#436 = CARTESIAN_POINT('',(15.,19.,20.));
#437 = VECTOR('',#438,1.);
#438 = DIRECTION('',(-1.,0.,0.));
#439 = PLANE('',#440);
#440 = AXIS2_PLACEMENT_3D('',#441,#442,#443);
#441 = CARTESIAN_POINT('',(0.,14.55,20.));
#442 = DIRECTION('',(0.,0.,1.));
#443 = DIRECTION('',(1.,0.,0.));
#444 = ADVANCED_FACE('',(#445),#464,.F.);
#445 = FACE_BOUND('',#446,.T.);
#446 = EDGE_LOOP('',(#447,#456,#462,#463));
#447 = ORIENTED_EDGE('',*,*,#448,.T.);
#448 = EDGE_CURVE('',#401,#449,#451,.T.);
#449 = VERTEX_POINT('',#450);
#450 = CARTESIAN_POINT('',(-15.,15.1,14.));
#451 = CIRCLE('',#452,1.);
#452 = AXIS2_PLACEMENT_3D('',#453,#454,#455);
#453 = CARTESIAN_POINT('',(-15.,14.1,14.));
#454 = DIRECTION('',(-1.,0.,0.));
#455 = DIRECTION('',(0.,0.,1.));
#456 = ORIENTED_EDGE('',*,*,#457,.T.);
#457 = EDGE_CURVE('',#449,#67,#458,.T.);
#458 = LINE('',#459,#460);
#459 = CARTESIAN_POINT('',(-15.,15.1,14.));
#460 = VECTOR('',#461,1.);
#461 = DIRECTION('',(1.,0.,0.));
#462 = ORIENTED_EDGE('',*,*,#66,.F.);
#463 = ORIENTED_EDGE('',*,*,#410,.F.);
#464 = CYLINDRICAL_SURFACE('',#465,1.);
#465 = AXIS2_PLACEMENT_3D('',#466,#467,#468);
#466 = CARTESIAN_POINT('',(-15.,14.1,14.));
#467 = DIRECTION('',(1.,0.,0.));
#468 = DIRECTION('',(0.,2.22044604925E-16,1.));
#469 = ADVANCED_FACE('',(#470),#489,.T.);
#470 = FACE_BOUND('',#471,.F.);
#471 = EDGE_LOOP('',(#472,#473,#474,#483));
#472 = ORIENTED_EDGE('',*,*,#287,.T.);
#473 = ORIENTED_EDGE('',*,*,#434,.T.);
#474 = ORIENTED_EDGE('',*,*,#475,.F.);
#475 = EDGE_CURVE('',#476,#425,#478,.T.);
#476 = VERTEX_POINT('',#477);
#477 = CARTESIAN_POINT('',(-15.,20.,19.));
#478 = CIRCLE('',#479,1.);
#479 = AXIS2_PLACEMENT_3D('',#480,#481,#482);
#480 = CARTESIAN_POINT('',(-15.,19.,19.));
#481 = DIRECTION('',(1.,-0.,0.));
#482 = DIRECTION('',(0.,0.,-1.));
#483 = ORIENTED_EDGE('',*,*,#484,.F.);
#484 = EDGE_CURVE('',#280,#476,#485,.T.);
#485 = LINE('',#486,#487);
#486 = CARTESIAN_POINT('',(15.,20.,19.));
#487 = VECTOR('',#488,1.);
#488 = DIRECTION('',(-1.,0.,0.));
#489 = CYLINDRICAL_SURFACE('',#490,1.);
#490 = AXIS2_PLACEMENT_3D('',#491,#492,#493);
#491 = CARTESIAN_POINT('',(15.,19.,19.));
#492 = DIRECTION('',(-1.,0.,0.));
#493 = DIRECTION('',(0.,1.,0.));
#494 = ADVANCED_FACE('',(#495),#513,.F.);
#495 = FACE_BOUND('',#496,.F.);
#496 = EDGE_LOOP('',(#497,#498,#506,#512));
#497 = ORIENTED_EDGE('',*,*,#75,.F.);
#498 = ORIENTED_EDGE('',*,*,#499,.F.);
#499 = EDGE_CURVE('',#500,#76,#502,.T.);
#500 = VERTEX_POINT('',#501);
#501 = CARTESIAN_POINT('',(-15.,15.1,11.8));
#502 = LINE('',#503,#504);
#503 = CARTESIAN_POINT('',(-15.,15.1,11.8));
#504 = VECTOR('',#505,1.);
#505 = DIRECTION('',(1.,0.,0.));
#506 = ORIENTED_EDGE('',*,*,#507,.T.);
#507 = EDGE_CURVE('',#500,#449,#508,.T.);
#508 = LINE('',#509,#510);
#509 = CARTESIAN_POINT('',(-15.,15.1,0.));
#510 = VECTOR('',#511,1.);
#511 = DIRECTION('',(0.,0.,1.));
#512 = ORIENTED_EDGE('',*,*,#457,.T.);
#513 = PLANE('',#514);
#514 = AXIS2_PLACEMENT_3D('',#515,#516,#517);
#515 = CARTESIAN_POINT('',(-15.,15.1,0.));
#516 = DIRECTION('',(0.,1.,0.));
#517 = DIRECTION('',(1.,0.,0.));
#518 = ADVANCED_FACE('',(#519),#537,.T.);
#519 = FACE_BOUND('',#520,.T.);
#520 = EDGE_LOOP('',(#521,#522,#530,#536));
#521 = ORIENTED_EDGE('',*,*,#279,.F.);
#522 = ORIENTED_EDGE('',*,*,#523,.T.);
#523 = EDGE_CURVE('',#271,#524,#526,.T.);
#524 = VERTEX_POINT('',#525);
#525 = CARTESIAN_POINT('',(-15.,20.,1.));
#526 = LINE('',#527,#528);
#527 = CARTESIAN_POINT('',(15.,20.,1.));
#528 = VECTOR('',#529,1.);
#529 = DIRECTION('',(-1.,0.,0.));
#530 = ORIENTED_EDGE('',*,*,#531,.T.);
#531 = EDGE_CURVE('',#524,#476,#532,.T.);
#532 = LINE('',#533,#534);
#533 = CARTESIAN_POINT('',(-15.,20.,0.));
#534 = VECTOR('',#535,1.);
#535 = DIRECTION('',(0.,0.,1.));
#536 = ORIENTED_EDGE('',*,*,#484,.F.);
#537 = PLANE('',#538);
#538 = AXIS2_PLACEMENT_3D('',#539,#540,#541);
#539 = CARTESIAN_POINT('',(0.,20.,10.));
#540 = DIRECTION('',(0.,1.,0.));
#541 = DIRECTION('',(0.,0.,1.));
#542 = ADVANCED_FACE('',(#543),#562,.F.);
#543 = FACE_BOUND('',#544,.T.);
#544 = EDGE_LOOP('',(#545,#554,#560,#561));
#545 = ORIENTED_EDGE('',*,*,#546,.T.);
#546 = EDGE_CURVE('',#500,#547,#549,.T.);
#547 = VERTEX_POINT('',#548);
#548 = CARTESIAN_POINT('',(-15.,14.1,10.8));
#549 = CIRCLE('',#550,1.);
#550 = AXIS2_PLACEMENT_3D('',#551,#552,#553);
#551 = CARTESIAN_POINT('',(-15.,14.1,11.8));
#552 = DIRECTION('',(-1.,0.,0.));
#553 = DIRECTION('',(0.,0.,1.));
#554 = ORIENTED_EDGE('',*,*,#555,.T.);
#555 = EDGE_CURVE('',#547,#84,#556,.T.);
#556 = LINE('',#557,#558);
#557 = CARTESIAN_POINT('',(-15.,14.1,10.8));
#558 = VECTOR('',#559,1.);
#559 = DIRECTION('',(1.,0.,0.));
#560 = ORIENTED_EDGE('',*,*,#83,.F.);
#561 = ORIENTED_EDGE('',*,*,#499,.F.);
#562 = CYLINDRICAL_SURFACE('',#563,1.);
#563 = AXIS2_PLACEMENT_3D('',#564,#565,#566);
#564 = CARTESIAN_POINT('',(-15.,14.1,11.8));
#565 = DIRECTION('',(1.,0.,0.));
#566 = DIRECTION('',(0.,1.,0.));
#567 = ADVANCED_FACE('',(#568),#587,.T.);
#568 = FACE_BOUND('',#569,.F.);
#569 = EDGE_LOOP('',(#570,#571,#572,#581));
#570 = ORIENTED_EDGE('',*,*,#270,.T.);
#571 = ORIENTED_EDGE('',*,*,#523,.T.);
#572 = ORIENTED_EDGE('',*,*,#573,.F.);
#573 = EDGE_CURVE('',#574,#524,#576,.T.);
#574 = VERTEX_POINT('',#575);
#575 = CARTESIAN_POINT('',(-15.,19.,-2.22044604925E-16));
#576 = CIRCLE('',#577,1.);
#577 = AXIS2_PLACEMENT_3D('',#578,#579,#580);
#578 = CARTESIAN_POINT('',(-15.,19.,1.));
#579 = DIRECTION('',(1.,-0.,0.));
#580 = DIRECTION('',(0.,0.,-1.));
#581 = ORIENTED_EDGE('',*,*,#582,.F.);
#582 = EDGE_CURVE('',#263,#574,#583,.T.);
#583 = LINE('',#584,#585);
#584 = CARTESIAN_POINT('',(15.,19.,-2.22044604925E-16));
#585 = VECTOR('',#586,1.);
#586 = DIRECTION('',(-1.,0.,0.));
#587 = CYLINDRICAL_SURFACE('',#588,1.);
#588 = AXIS2_PLACEMENT_3D('',#589,#590,#591);
#589 = CARTESIAN_POINT('',(15.,19.,1.));
#590 = DIRECTION('',(-1.,0.,0.));
#591 = DIRECTION('',(0.,0.,-1.));
#592 = ADVANCED_FACE('',(#593,#611,#622),#633,.T.);
#593 = FACE_BOUND('',#594,.T.);
#594 = EDGE_LOOP('',(#595,#596,#597,#605));
#595 = ORIENTED_EDGE('',*,*,#92,.T.);
#596 = ORIENTED_EDGE('',*,*,#555,.F.);
#597 = ORIENTED_EDGE('',*,*,#598,.T.);
#598 = EDGE_CURVE('',#547,#599,#601,.T.);
#599 = VERTEX_POINT('',#600);
#600 = CARTESIAN_POINT('',(-15.,6.9,10.8));
#601 = LINE('',#602,#603);
#602 = CARTESIAN_POINT('',(-15.,16.,10.8));
#603 = VECTOR('',#604,1.);
#604 = DIRECTION('',(0.,-1.,0.));
#605 = ORIENTED_EDGE('',*,*,#606,.T.);
#606 = EDGE_CURVE('',#599,#93,#607,.T.);
#607 = LINE('',#608,#609);
#608 = CARTESIAN_POINT('',(-15.,6.9,10.8));
#609 = VECTOR('',#610,1.);
#610 = DIRECTION('',(1.,0.,0.));
#611 = FACE_BOUND('',#612,.T.);
#612 = EDGE_LOOP('',(#613));
#613 = ORIENTED_EDGE('',*,*,#614,.F.);
#614 = EDGE_CURVE('',#615,#615,#617,.T.);
#615 = VERTEX_POINT('',#616);
#616 = CARTESIAN_POINT('',(-6.,11.,10.8));
#617 = CIRCLE('',#618,2.);
#618 = AXIS2_PLACEMENT_3D('',#619,#620,#621);
#619 = CARTESIAN_POINT('',(-8.,11.,10.8));
#620 = DIRECTION('',(0.,0.,1.));
#621 = DIRECTION('',(1.,0.,0.));
#622 = FACE_BOUND('',#623,.T.);
#623 = EDGE_LOOP('',(#624));
#624 = ORIENTED_EDGE('',*,*,#625,.F.);
#625 = EDGE_CURVE('',#626,#626,#628,.T.);
#626 = VERTEX_POINT('',#627);
#627 = CARTESIAN_POINT('',(10.,11.,10.8));
#628 = CIRCLE('',#629,2.);
#629 = AXIS2_PLACEMENT_3D('',#630,#631,#632);
#630 = CARTESIAN_POINT('',(8.,11.,10.8));
#631 = DIRECTION('',(0.,0.,1.));
#632 = DIRECTION('',(1.,0.,0.));
#633 = PLANE('',#634);
#634 = AXIS2_PLACEMENT_3D('',#635,#636,#637);
#635 = CARTESIAN_POINT('',(1.550436144115E-16,0.45,10.8));
#636 = DIRECTION('',(0.,0.,1.));
#637 = DIRECTION('',(1.,0.,0.));
#638 = ADVANCED_FACE('',(#639,#657,#668,#679,#690),#701,.T.);
#639 = FACE_BOUND('',#640,.T.);
#640 = EDGE_LOOP('',(#641,#649,#650,#651));
#641 = ORIENTED_EDGE('',*,*,#642,.F.);
#642 = EDGE_CURVE('',#574,#643,#645,.T.);
#643 = VERTEX_POINT('',#644);
#644 = CARTESIAN_POINT('',(-15.,-19.,-2.22044604925E-16));
#645 = LINE('',#646,#647);
#646 = CARTESIAN_POINT('',(-15.,20.,0.));
#647 = VECTOR('',#648,1.);
#648 = DIRECTION('',(0.,-1.,0.));
#649 = ORIENTED_EDGE('',*,*,#582,.F.);
#650 = ORIENTED_EDGE('',*,*,#262,.F.);
#651 = ORIENTED_EDGE('',*,*,#652,.F.);
#652 = EDGE_CURVE('',#643,#254,#653,.T.);
#653 = LINE('',#654,#655);
#654 = CARTESIAN_POINT('',(-15.,-19.,-2.22044604925E-16));
#655 = VECTOR('',#656,1.);
#656 = DIRECTION('',(1.,0.,0.));
#657 = FACE_BOUND('',#658,.T.);
#658 = EDGE_LOOP('',(#659));
#659 = ORIENTED_EDGE('',*,*,#660,.F.);
#660 = EDGE_CURVE('',#661,#661,#663,.T.);
#661 = VERTEX_POINT('',#662);
#662 = CARTESIAN_POINT('',(10.,-11.,1.347111479062E-15));
#663 = CIRCLE('',#664,2.);
#664 = AXIS2_PLACEMENT_3D('',#665,#666,#667);
#665 = CARTESIAN_POINT('',(8.,-11.,1.347111479062E-15));
#666 = DIRECTION('',(0.,-1.224646799147E-16,-1.));
#667 = DIRECTION('',(1.,0.,0.));
#668 = FACE_BOUND('',#669,.T.);
#669 = EDGE_LOOP('',(#670));
#670 = ORIENTED_EDGE('',*,*,#671,.F.);
#671 = EDGE_CURVE('',#672,#672,#674,.T.);
#672 = VERTEX_POINT('',#673);
#673 = CARTESIAN_POINT('',(-6.,-11.,1.347111479062E-15));
#674 = CIRCLE('',#675,2.);
#675 = AXIS2_PLACEMENT_3D('',#676,#677,#678);
#676 = CARTESIAN_POINT('',(-8.,-11.,1.347111479062E-15));
#677 = DIRECTION('',(0.,-1.224646799147E-16,-1.));
#678 = DIRECTION('',(1.,0.,0.));
#679 = FACE_BOUND('',#680,.T.);
#680 = EDGE_LOOP('',(#681));
#681 = ORIENTED_EDGE('',*,*,#682,.F.);
#682 = EDGE_CURVE('',#683,#683,#685,.T.);
#683 = VERTEX_POINT('',#684);
#684 = CARTESIAN_POINT('',(10.,11.,-1.347111479062E-15));
#685 = CIRCLE('',#686,2.);
#686 = AXIS2_PLACEMENT_3D('',#687,#688,#689);
#687 = CARTESIAN_POINT('',(8.,11.,-1.347111479062E-15));
#688 = DIRECTION('',(0.,-1.224646799147E-16,-1.));
#689 = DIRECTION('',(1.,0.,0.));
#690 = FACE_BOUND('',#691,.T.);
#691 = EDGE_LOOP('',(#692));
#692 = ORIENTED_EDGE('',*,*,#693,.F.);
#693 = EDGE_CURVE('',#694,#694,#696,.T.);
#694 = VERTEX_POINT('',#695);
#695 = CARTESIAN_POINT('',(-6.,11.,-1.347111479062E-15));
#696 = CIRCLE('',#697,2.);
#697 = AXIS2_PLACEMENT_3D('',#698,#699,#700);
#698 = CARTESIAN_POINT('',(-8.,11.,-1.347111479062E-15));
#699 = DIRECTION('',(0.,-1.224646799147E-16,-1.));
#700 = DIRECTION('',(1.,0.,0.));
#701 = PLANE('',#702);
#702 = AXIS2_PLACEMENT_3D('',#703,#704,#705);
#703 = CARTESIAN_POINT('',(2.030122102172E-16,0.,0.));
#704 = DIRECTION('',(-0.,-0.,-1.));
#705 = DIRECTION('',(-1.,0.,0.));
#706 = ADVANCED_FACE('',(#707),#726,.T.);
#707 = FACE_BOUND('',#708,.F.);
#708 = EDGE_LOOP('',(#709,#718,#719,#720));
#709 = ORIENTED_EDGE('',*,*,#710,.T.);
#710 = EDGE_CURVE('',#711,#599,#713,.T.);
#711 = VERTEX_POINT('',#712);
#712 = CARTESIAN_POINT('',(-15.,5.9,9.8));
#713 = CIRCLE('',#714,1.);
#714 = AXIS2_PLACEMENT_3D('',#715,#716,#717);
#715 = CARTESIAN_POINT('',(-15.,6.9,9.8));
#716 = DIRECTION('',(-1.,0.,0.));
#717 = DIRECTION('',(0.,0.,1.));
#718 = ORIENTED_EDGE('',*,*,#606,.T.);
#719 = ORIENTED_EDGE('',*,*,#100,.F.);
#720 = ORIENTED_EDGE('',*,*,#721,.F.);
#721 = EDGE_CURVE('',#711,#101,#722,.T.);
#722 = LINE('',#723,#724);
#723 = CARTESIAN_POINT('',(-15.,5.9,9.8));
#724 = VECTOR('',#725,1.);
#725 = DIRECTION('',(1.,0.,0.));
#726 = CYLINDRICAL_SURFACE('',#727,1.);
#727 = AXIS2_PLACEMENT_3D('',#728,#729,#730);
#728 = CARTESIAN_POINT('',(-15.,6.9,9.8));
#729 = DIRECTION('',(1.,0.,0.));
#730 = DIRECTION('',(0.,-1.,0.));
#731 = ADVANCED_FACE('',(#732),#751,.T.);
#732 = FACE_BOUND('',#733,.F.);
#733 = EDGE_LOOP('',(#734,#743,#749,#750));
#734 = ORIENTED_EDGE('',*,*,#735,.T.);
#735 = EDGE_CURVE('',#643,#736,#738,.T.);
#736 = VERTEX_POINT('',#737);
#737 = CARTESIAN_POINT('',(-15.,-20.,1.));
#738 = CIRCLE('',#739,1.);
#739 = AXIS2_PLACEMENT_3D('',#740,#741,#742);
#740 = CARTESIAN_POINT('',(-15.,-19.,1.));
#741 = DIRECTION('',(-1.,0.,0.));
#742 = DIRECTION('',(0.,0.,1.));
#743 = ORIENTED_EDGE('',*,*,#744,.T.);
#744 = EDGE_CURVE('',#736,#246,#745,.T.);
#745 = LINE('',#746,#747);
#746 = CARTESIAN_POINT('',(-15.,-20.,1.));
#747 = VECTOR('',#748,1.);
#748 = DIRECTION('',(1.,0.,0.));
#749 = ORIENTED_EDGE('',*,*,#253,.F.);
#750 = ORIENTED_EDGE('',*,*,#652,.F.);
#751 = CYLINDRICAL_SURFACE('',#752,1.);
#752 = AXIS2_PLACEMENT_3D('',#753,#754,#755);
#753 = CARTESIAN_POINT('',(-15.,-19.,1.));
#754 = DIRECTION('',(1.,0.,0.));
#755 = DIRECTION('',(0.,0.,-1.));
#756 = ADVANCED_FACE('',(#757),#775,.F.);
#757 = FACE_BOUND('',#758,.F.);
#758 = EDGE_LOOP('',(#759,#767,#768,#769));
#759 = ORIENTED_EDGE('',*,*,#760,.T.);
#760 = EDGE_CURVE('',#761,#711,#763,.T.);
#761 = VERTEX_POINT('',#762);
#762 = CARTESIAN_POINT('',(-15.,5.9,6.));
#763 = LINE('',#764,#765);
#764 = CARTESIAN_POINT('',(-15.,5.9,5.));
#765 = VECTOR('',#766,1.);
#766 = DIRECTION('',(0.,0.,1.));
#767 = ORIENTED_EDGE('',*,*,#721,.T.);
#768 = ORIENTED_EDGE('',*,*,#109,.F.);
#769 = ORIENTED_EDGE('',*,*,#770,.F.);
#770 = EDGE_CURVE('',#761,#110,#771,.T.);
#771 = LINE('',#772,#773);
#772 = CARTESIAN_POINT('',(-15.,5.9,6.));
#773 = VECTOR('',#774,1.);
#774 = DIRECTION('',(1.,0.,0.));
#775 = PLANE('',#776);
#776 = AXIS2_PLACEMENT_3D('',#777,#778,#779);
#777 = CARTESIAN_POINT('',(-15.,5.9,5.));
#778 = DIRECTION('',(0.,1.,0.));
#779 = DIRECTION('',(1.,0.,0.));
#780 = ADVANCED_FACE('',(#781),#799,.T.);
#781 = FACE_BOUND('',#782,.T.);
#782 = EDGE_LOOP('',(#783,#784,#792,#798));
#783 = ORIENTED_EDGE('',*,*,#245,.T.);
#784 = ORIENTED_EDGE('',*,*,#785,.F.);
#785 = EDGE_CURVE('',#786,#237,#788,.T.);
#786 = VERTEX_POINT('',#787);
#787 = CARTESIAN_POINT('',(-15.,-20.,19.));
#788 = LINE('',#789,#790);
#789 = CARTESIAN_POINT('',(-15.,-20.,19.));
#790 = VECTOR('',#791,1.);
#791 = DIRECTION('',(1.,0.,0.));
#792 = ORIENTED_EDGE('',*,*,#793,.F.);
#793 = EDGE_CURVE('',#736,#786,#794,.T.);
#794 = LINE('',#795,#796);
#795 = CARTESIAN_POINT('',(-15.,-20.,0.));
#796 = VECTOR('',#797,1.);
#797 = DIRECTION('',(0.,0.,1.));
#798 = ORIENTED_EDGE('',*,*,#744,.T.);
#799 = PLANE('',#800);
#800 = AXIS2_PLACEMENT_3D('',#801,#802,#803);
#801 = CARTESIAN_POINT('',(0.,-20.,10.));
#802 = DIRECTION('',(-0.,-1.,-0.));
#803 = DIRECTION('',(0.,0.,-1.));
#804 = ADVANCED_FACE('',(#805),#824,.F.);
#805 = FACE_BOUND('',#806,.F.);
#806 = EDGE_LOOP('',(#807,#816,#817,#818));
#807 = ORIENTED_EDGE('',*,*,#808,.T.);
#808 = EDGE_CURVE('',#809,#761,#811,.T.);
#809 = VERTEX_POINT('',#810);
#810 = CARTESIAN_POINT('',(-15.,4.9,5.));
#811 = CIRCLE('',#812,1.);
#812 = AXIS2_PLACEMENT_3D('',#813,#814,#815);
#813 = CARTESIAN_POINT('',(-15.,4.9,6.));
#814 = DIRECTION('',(1.,0.,-0.));
#815 = DIRECTION('',(0.,0.,1.));
#816 = ORIENTED_EDGE('',*,*,#770,.T.);
#817 = ORIENTED_EDGE('',*,*,#117,.F.);
#818 = ORIENTED_EDGE('',*,*,#819,.F.);
#819 = EDGE_CURVE('',#809,#118,#820,.T.);
#820 = LINE('',#821,#822);
#821 = CARTESIAN_POINT('',(-15.,4.9,5.));
#822 = VECTOR('',#823,1.);
#823 = DIRECTION('',(1.,0.,0.));
#824 = CYLINDRICAL_SURFACE('',#825,1.);
#825 = AXIS2_PLACEMENT_3D('',#826,#827,#828);
#826 = CARTESIAN_POINT('',(-15.,4.9,6.));
#827 = DIRECTION('',(1.,0.,0.));
#828 = DIRECTION('',(0.,0.,-1.));
#829 = ADVANCED_FACE('',(#830),#849,.T.);
#830 = FACE_BOUND('',#831,.F.);
#831 = EDGE_LOOP('',(#832,#841,#847,#848));
#832 = ORIENTED_EDGE('',*,*,#833,.T.);
#833 = EDGE_CURVE('',#786,#834,#836,.T.);
#834 = VERTEX_POINT('',#835);
#835 = CARTESIAN_POINT('',(-15.,-19.,20.));
#836 = CIRCLE('',#837,1.);
#837 = AXIS2_PLACEMENT_3D('',#838,#839,#840);
#838 = CARTESIAN_POINT('',(-15.,-19.,19.));
#839 = DIRECTION('',(-1.,0.,0.));
#840 = DIRECTION('',(0.,0.,1.));
#841 = ORIENTED_EDGE('',*,*,#842,.T.);
#842 = EDGE_CURVE('',#834,#229,#843,.T.);
#843 = LINE('',#844,#845);
#844 = CARTESIAN_POINT('',(-15.,-19.,20.));
#845 = VECTOR('',#846,1.);
#846 = DIRECTION('',(1.,0.,0.));
#847 = ORIENTED_EDGE('',*,*,#236,.F.);
#848 = ORIENTED_EDGE('',*,*,#785,.F.);
#849 = CYLINDRICAL_SURFACE('',#850,1.);
#850 = AXIS2_PLACEMENT_3D('',#851,#852,#853);
#851 = CARTESIAN_POINT('',(-15.,-19.,19.));
#852 = DIRECTION('',(1.,0.,0.));
#853 = DIRECTION('',(0.,-1.,0.));
#854 = ADVANCED_FACE('',(#855),#873,.T.);
#855 = FACE_BOUND('',#856,.T.);
#856 = EDGE_LOOP('',(#857,#858,#859,#867));
#857 = ORIENTED_EDGE('',*,*,#126,.T.);
#858 = ORIENTED_EDGE('',*,*,#819,.F.);
#859 = ORIENTED_EDGE('',*,*,#860,.T.);
#860 = EDGE_CURVE('',#809,#861,#863,.T.);
#861 = VERTEX_POINT('',#862);
#862 = CARTESIAN_POINT('',(-15.,-4.,5.));
#863 = LINE('',#864,#865);
#864 = CARTESIAN_POINT('',(-15.,20.,5.));
#865 = VECTOR('',#866,1.);
#866 = DIRECTION('',(0.,-1.,0.));
#867 = ORIENTED_EDGE('',*,*,#868,.F.);
#868 = EDGE_CURVE('',#127,#861,#869,.T.);
#869 = LINE('',#870,#871);
#870 = CARTESIAN_POINT('',(15.,-4.,5.));
#871 = VECTOR('',#872,1.);
#872 = DIRECTION('',(-1.,0.,0.));
#873 = PLANE('',#874);
#874 = AXIS2_PLACEMENT_3D('',#875,#876,#877);
#875 = CARTESIAN_POINT('',(0.,0.,5.));
#876 = DIRECTION('',(0.,0.,1.));
#877 = DIRECTION('',(1.,0.,0.));
#878 = ADVANCED_FACE('',(#879),#897,.T.);
#879 = FACE_BOUND('',#880,.T.);
#880 = EDGE_LOOP('',(#881,#882,#890,#896));
#881 = ORIENTED_EDGE('',*,*,#228,.T.);
#882 = ORIENTED_EDGE('',*,*,#883,.F.);
#883 = EDGE_CURVE('',#884,#220,#886,.T.);
#884 = VERTEX_POINT('',#885);
#885 = CARTESIAN_POINT('',(-15.,-10.1,20.));
#886 = LINE('',#887,#888);
#887 = CARTESIAN_POINT('',(-15.,-10.1,20.));
#888 = VECTOR('',#889,1.);
#889 = DIRECTION('',(1.,0.,0.));
#890 = ORIENTED_EDGE('',*,*,#891,.T.);
#891 = EDGE_CURVE('',#884,#834,#892,.T.);
#892 = LINE('',#893,#894);
#893 = CARTESIAN_POINT('',(-15.,-15.1,20.));
#894 = VECTOR('',#895,1.);
#895 = DIRECTION('',(0.,-1.,0.));
#896 = ORIENTED_EDGE('',*,*,#842,.T.);
#897 = PLANE('',#898);
#898 = AXIS2_PLACEMENT_3D('',#899,#900,#901);
#899 = CARTESIAN_POINT('',(-2.17158537824E-17,-14.55,20.));
#900 = DIRECTION('',(0.,0.,1.));
#901 = DIRECTION('',(1.,0.,0.));
#902 = ADVANCED_FACE('',(#903),#922,.F.);
#903 = FACE_BOUND('',#904,.F.);
#904 = EDGE_LOOP('',(#905,#906,#914,#921));
#905 = ORIENTED_EDGE('',*,*,#134,.T.);
#906 = ORIENTED_EDGE('',*,*,#907,.T.);
#907 = EDGE_CURVE('',#135,#908,#910,.T.);
#908 = VERTEX_POINT('',#909);
#909 = CARTESIAN_POINT('',(-15.,-5.,6.));
#910 = LINE('',#911,#912);
#911 = CARTESIAN_POINT('',(15.,-5.,6.));
#912 = VECTOR('',#913,1.);
#913 = DIRECTION('',(-1.,0.,0.));
#914 = ORIENTED_EDGE('',*,*,#915,.F.);
#915 = EDGE_CURVE('',#861,#908,#916,.T.);
#916 = CIRCLE('',#917,1.);
#917 = AXIS2_PLACEMENT_3D('',#918,#919,#920);
#918 = CARTESIAN_POINT('',(-15.,-4.,6.));
#919 = DIRECTION('',(-1.,0.,0.));
#920 = DIRECTION('',(0.,0.,-1.));
#921 = ORIENTED_EDGE('',*,*,#868,.F.);
#922 = CYLINDRICAL_SURFACE('',#923,1.);
#923 = AXIS2_PLACEMENT_3D('',#924,#925,#926);
#924 = CARTESIAN_POINT('',(15.,-4.,6.));
#925 = DIRECTION('',(-1.,0.,0.));
#926 = DIRECTION('',(0.,0.,-1.));
#927 = ADVANCED_FACE('',(#928),#947,.T.);
#928 = FACE_BOUND('',#929,.T.);
#929 = EDGE_LOOP('',(#930,#939,#940,#941));
#930 = ORIENTED_EDGE('',*,*,#931,.T.);
#931 = EDGE_CURVE('',#932,#884,#934,.T.);
#932 = VERTEX_POINT('',#933);
#933 = CARTESIAN_POINT('',(-15.,-9.1,19.));
#934 = CIRCLE('',#935,1.);
#935 = AXIS2_PLACEMENT_3D('',#936,#937,#938);
#936 = CARTESIAN_POINT('',(-15.,-10.1,19.));
#937 = DIRECTION('',(1.,0.,-0.));
#938 = DIRECTION('',(0.,0.,1.));
#939 = ORIENTED_EDGE('',*,*,#883,.T.);
#940 = ORIENTED_EDGE('',*,*,#219,.F.);
#941 = ORIENTED_EDGE('',*,*,#942,.F.);
#942 = EDGE_CURVE('',#932,#212,#943,.T.);
#943 = LINE('',#944,#945);
#944 = CARTESIAN_POINT('',(-15.,-9.1,19.));
#945 = VECTOR('',#946,1.);
#946 = DIRECTION('',(1.,0.,0.));
#947 = CYLINDRICAL_SURFACE('',#948,1.);
#948 = AXIS2_PLACEMENT_3D('',#949,#950,#951);
#949 = CARTESIAN_POINT('',(-15.,-10.1,19.));
#950 = DIRECTION('',(1.,0.,0.));
#951 = DIRECTION('',(0.,1.,0.));
#952 = ADVANCED_FACE('',(#953),#971,.F.);
#953 = FACE_BOUND('',#954,.F.);
#954 = EDGE_LOOP('',(#955,#956,#964,#970));
#955 = ORIENTED_EDGE('',*,*,#143,.T.);
#956 = ORIENTED_EDGE('',*,*,#957,.T.);
#957 = EDGE_CURVE('',#144,#958,#960,.T.);
#958 = VERTEX_POINT('',#959);
#959 = CARTESIAN_POINT('',(-15.,-5.,9.8));
#960 = LINE('',#961,#962);
#961 = CARTESIAN_POINT('',(15.,-5.,9.8));
#962 = VECTOR('',#963,1.);
#963 = DIRECTION('',(-1.,0.,0.));
#964 = ORIENTED_EDGE('',*,*,#965,.F.);
#965 = EDGE_CURVE('',#908,#958,#966,.T.);
#966 = LINE('',#967,#968);
#967 = CARTESIAN_POINT('',(-15.,-5.,5.));
#968 = VECTOR('',#969,1.);
#969 = DIRECTION('',(0.,0.,1.));
#970 = ORIENTED_EDGE('',*,*,#907,.F.);
#971 = PLANE('',#972);
#972 = AXIS2_PLACEMENT_3D('',#973,#974,#975);
#973 = CARTESIAN_POINT('',(15.,-5.,5.));
#974 = DIRECTION('',(0.,-1.,0.));
#975 = DIRECTION('',(-1.,0.,0.));
#976 = ADVANCED_FACE('',(#977),#995,.T.);
#977 = FACE_BOUND('',#978,.T.);
#978 = EDGE_LOOP('',(#979,#980,#988,#994));
#979 = ORIENTED_EDGE('',*,*,#211,.T.);
#980 = ORIENTED_EDGE('',*,*,#981,.T.);
#981 = EDGE_CURVE('',#203,#982,#984,.T.);
#982 = VERTEX_POINT('',#983);
#983 = CARTESIAN_POINT('',(-15.,-9.1,16.));
#984 = LINE('',#985,#986);
#985 = CARTESIAN_POINT('',(15.,-9.1,16.));
#986 = VECTOR('',#987,1.);
#987 = DIRECTION('',(-1.,0.,0.));
#988 = ORIENTED_EDGE('',*,*,#989,.T.);
#989 = EDGE_CURVE('',#982,#932,#990,.T.);
#990 = LINE('',#991,#992);
#991 = CARTESIAN_POINT('',(-15.,-9.1,15.));
#992 = VECTOR('',#993,1.);
#993 = DIRECTION('',(0.,2.22044604925E-16,1.));
#994 = ORIENTED_EDGE('',*,*,#942,.T.);
#995 = PLANE('',#996);
#996 = AXIS2_PLACEMENT_3D('',#997,#998,#999);
#997 = CARTESIAN_POINT('',(0.,-9.1,17.5));
#998 = DIRECTION('',(0.,1.,0.));
#999 = DIRECTION('',(0.,0.,1.));
#1000 = ADVANCED_FACE('',(#1001),#1020,.T.);
#1001 = FACE_BOUND('',#1002,.T.);
#1002 = EDGE_LOOP('',(#1003,#1004,#1005,#1014));
#1003 = ORIENTED_EDGE('',*,*,#151,.T.);
#1004 = ORIENTED_EDGE('',*,*,#957,.T.);
#1005 = ORIENTED_EDGE('',*,*,#1006,.F.);
#1006 = EDGE_CURVE('',#1007,#958,#1009,.T.);
#1007 = VERTEX_POINT('',#1008);
#1008 = CARTESIAN_POINT('',(-15.,-6.,10.8));
#1009 = CIRCLE('',#1010,1.);
#1010 = AXIS2_PLACEMENT_3D('',#1011,#1012,#1013);
#1011 = CARTESIAN_POINT('',(-15.,-6.,9.8));
#1012 = DIRECTION('',(-1.,0.,0.));
#1013 = DIRECTION('',(0.,0.,-1.));
#1014 = ORIENTED_EDGE('',*,*,#1015,.F.);
#1015 = EDGE_CURVE('',#152,#1007,#1016,.T.);
#1016 = LINE('',#1017,#1018);
#1017 = CARTESIAN_POINT('',(15.,-6.,10.8));
#1018 = VECTOR('',#1019,1.);
#1019 = DIRECTION('',(-1.,0.,0.));
#1020 = CYLINDRICAL_SURFACE('',#1021,1.);
#1021 = AXIS2_PLACEMENT_3D('',#1022,#1023,#1024);
#1022 = CARTESIAN_POINT('',(15.,-6.,9.8));
#1023 = DIRECTION('',(-1.,0.,0.));
#1024 = DIRECTION('',(0.,0.,1.));
#1025 = ADVANCED_FACE('',(#1026),#1045,.T.);
#1026 = FACE_BOUND('',#1027,.F.);
#1027 = EDGE_LOOP('',(#1028,#1029,#1030,#1039));
#1028 = ORIENTED_EDGE('',*,*,#202,.T.);
#1029 = ORIENTED_EDGE('',*,*,#981,.T.);
#1030 = ORIENTED_EDGE('',*,*,#1031,.F.);
#1031 = EDGE_CURVE('',#1032,#982,#1034,.T.);
#1032 = VERTEX_POINT('',#1033);
#1033 = CARTESIAN_POINT('',(-15.,-10.1,15.));
#1034 = CIRCLE('',#1035,1.);
#1035 = AXIS2_PLACEMENT_3D('',#1036,#1037,#1038);
#1036 = CARTESIAN_POINT('',(-15.,-10.1,16.));
#1037 = DIRECTION('',(1.,-0.,0.));
#1038 = DIRECTION('',(0.,0.,-1.));
#1039 = ORIENTED_EDGE('',*,*,#1040,.F.);
#1040 = EDGE_CURVE('',#195,#1032,#1041,.T.);
#1041 = LINE('',#1042,#1043);
#1042 = CARTESIAN_POINT('',(15.,-10.1,15.));
#1043 = VECTOR('',#1044,1.);
#1044 = DIRECTION('',(-1.,0.,0.));
#1045 = CYLINDRICAL_SURFACE('',#1046,1.);
#1046 = AXIS2_PLACEMENT_3D('',#1047,#1048,#1049);
#1047 = CARTESIAN_POINT('',(15.,-10.1,16.));
#1048 = DIRECTION('',(-1.,0.,0.));
#1049 = DIRECTION('',(-0.,-2.22044604925E-16,-1.));
#1050 = ADVANCED_FACE('',(#1051,#1069,#1080),#1091,.T.);
#1051 = FACE_BOUND('',#1052,.T.);
#1052 = EDGE_LOOP('',(#1053,#1054,#1055,#1063));
#1053 = ORIENTED_EDGE('',*,*,#160,.T.);
#1054 = ORIENTED_EDGE('',*,*,#1015,.T.);
#1055 = ORIENTED_EDGE('',*,*,#1056,.T.);
#1056 = EDGE_CURVE('',#1007,#1057,#1059,.T.);
#1057 = VERTEX_POINT('',#1058);
#1058 = CARTESIAN_POINT('',(-15.,-14.1,10.8));
#1059 = LINE('',#1060,#1061);
#1060 = CARTESIAN_POINT('',(-15.,-5.,10.8));
#1061 = VECTOR('',#1062,1.);
#1062 = DIRECTION('',(0.,-1.,0.));
#1063 = ORIENTED_EDGE('',*,*,#1064,.T.);
#1064 = EDGE_CURVE('',#1057,#161,#1065,.T.);
#1065 = LINE('',#1066,#1067);
#1066 = CARTESIAN_POINT('',(-15.,-14.1,10.8));
#1067 = VECTOR('',#1068,1.);
#1068 = DIRECTION('',(1.,0.,0.));
#1069 = FACE_BOUND('',#1070,.T.);
#1070 = EDGE_LOOP('',(#1071));
#1071 = ORIENTED_EDGE('',*,*,#1072,.F.);
#1072 = EDGE_CURVE('',#1073,#1073,#1075,.T.);
#1073 = VERTEX_POINT('',#1074);
#1074 = CARTESIAN_POINT('',(-6.,-11.,10.8));
#1075 = CIRCLE('',#1076,2.);
#1076 = AXIS2_PLACEMENT_3D('',#1077,#1078,#1079);
#1077 = CARTESIAN_POINT('',(-8.,-11.,10.8));
#1078 = DIRECTION('',(0.,0.,1.));
#1079 = DIRECTION('',(1.,0.,0.));
#1080 = FACE_BOUND('',#1081,.T.);
#1081 = EDGE_LOOP('',(#1082));
#1082 = ORIENTED_EDGE('',*,*,#1083,.F.);
#1083 = EDGE_CURVE('',#1084,#1084,#1086,.T.);
#1084 = VERTEX_POINT('',#1085);
#1085 = CARTESIAN_POINT('',(10.,-11.,10.8));
#1086 = CIRCLE('',#1087,2.);
#1087 = AXIS2_PLACEMENT_3D('',#1088,#1089,#1090);
#1088 = CARTESIAN_POINT('',(8.,-11.,10.8));
#1089 = DIRECTION('',(0.,0.,1.));
#1090 = DIRECTION('',(1.,0.,0.));
#1091 = PLANE('',#1092);
#1092 = AXIS2_PLACEMENT_3D('',#1093,#1094,#1095);
#1093 = CARTESIAN_POINT('',(1.550436144115E-16,0.45,10.8));
#1094 = DIRECTION('',(0.,0.,1.));
#1095 = DIRECTION('',(1.,0.,0.));
#1096 = ADVANCED_FACE('',(#1097),#1115,.F.);
#1097 = FACE_BOUND('',#1098,.F.);
#1098 = EDGE_LOOP('',(#1099,#1100,#1101,#1109));
#1099 = ORIENTED_EDGE('',*,*,#194,.T.);
#1100 = ORIENTED_EDGE('',*,*,#1040,.T.);
#1101 = ORIENTED_EDGE('',*,*,#1102,.F.);
#1102 = EDGE_CURVE('',#1103,#1032,#1105,.T.);
#1103 = VERTEX_POINT('',#1104);
#1104 = CARTESIAN_POINT('',(-15.,-14.1,15.));
#1105 = LINE('',#1106,#1107);
#1106 = CARTESIAN_POINT('',(-15.,-15.1,15.));
#1107 = VECTOR('',#1108,1.);
#1108 = DIRECTION('',(0.,1.,-2.22044604925E-16));
#1109 = ORIENTED_EDGE('',*,*,#1110,.F.);
#1110 = EDGE_CURVE('',#186,#1103,#1111,.T.);
#1111 = LINE('',#1112,#1113);
#1112 = CARTESIAN_POINT('',(15.,-14.1,15.));
#1113 = VECTOR('',#1114,1.);
#1114 = DIRECTION('',(-1.,0.,0.));
#1115 = PLANE('',#1116);
#1116 = AXIS2_PLACEMENT_3D('',#1117,#1118,#1119);
#1117 = CARTESIAN_POINT('',(15.,-15.1,15.));
#1118 = DIRECTION('',(0.,2.22044604925E-16,1.));
#1119 = DIRECTION('',(-1.,0.,0.));
#1120 = ADVANCED_FACE('',(#1121),#1140,.F.);
#1121 = FACE_BOUND('',#1122,.T.);
#1122 = EDGE_LOOP('',(#1123,#1132,#1138,#1139));
#1123 = ORIENTED_EDGE('',*,*,#1124,.T.);
#1124 = EDGE_CURVE('',#1057,#1125,#1127,.T.);
#1125 = VERTEX_POINT('',#1126);
#1126 = CARTESIAN_POINT('',(-15.,-15.1,11.8));
#1127 = CIRCLE('',#1128,1.);
#1128 = AXIS2_PLACEMENT_3D('',#1129,#1130,#1131);
#1129 = CARTESIAN_POINT('',(-15.,-14.1,11.8));
#1130 = DIRECTION('',(-1.,0.,0.));
#1131 = DIRECTION('',(0.,0.,1.));
#1132 = ORIENTED_EDGE('',*,*,#1133,.T.);
#1133 = EDGE_CURVE('',#1125,#169,#1134,.T.);
#1134 = LINE('',#1135,#1136);
#1135 = CARTESIAN_POINT('',(-15.,-15.1,11.8));
#1136 = VECTOR('',#1137,1.);
#1137 = DIRECTION('',(1.,0.,0.));
#1138 = ORIENTED_EDGE('',*,*,#168,.F.);
#1139 = ORIENTED_EDGE('',*,*,#1064,.F.);
#1140 = CYLINDRICAL_SURFACE('',#1141,1.);
#1141 = AXIS2_PLACEMENT_3D('',#1142,#1143,#1144);
#1142 = CARTESIAN_POINT('',(-15.,-14.1,11.8));
#1143 = DIRECTION('',(1.,0.,0.));
#1144 = DIRECTION('',(0.,0.,-1.));
#1145 = ADVANCED_FACE('',(#1146),#1165,.F.);
#1146 = FACE_BOUND('',#1147,.T.);
#1147 = EDGE_LOOP('',(#1148,#1149,#1157,#1164));
#1148 = ORIENTED_EDGE('',*,*,#185,.T.);
#1149 = ORIENTED_EDGE('',*,*,#1150,.T.);
#1150 = EDGE_CURVE('',#178,#1151,#1153,.T.);
#1151 = VERTEX_POINT('',#1152);
#1152 = CARTESIAN_POINT('',(-15.,-15.1,14.));
#1153 = LINE('',#1154,#1155);
#1154 = CARTESIAN_POINT('',(15.,-15.1,14.));
#1155 = VECTOR('',#1156,1.);
#1156 = DIRECTION('',(-1.,0.,0.));
#1157 = ORIENTED_EDGE('',*,*,#1158,.F.);
#1158 = EDGE_CURVE('',#1103,#1151,#1159,.T.);
#1159 = CIRCLE('',#1160,1.);
#1160 = AXIS2_PLACEMENT_3D('',#1161,#1162,#1163);
#1161 = CARTESIAN_POINT('',(-15.,-14.1,14.));
#1162 = DIRECTION('',(1.,-0.,0.));
#1163 = DIRECTION('',(0.,0.,-1.));
#1164 = ORIENTED_EDGE('',*,*,#1110,.F.);
#1165 = CYLINDRICAL_SURFACE('',#1166,1.);
#1166 = AXIS2_PLACEMENT_3D('',#1167,#1168,#1169);
#1167 = CARTESIAN_POINT('',(15.,-14.1,14.));
#1168 = DIRECTION('',(-1.,0.,0.));
#1169 = DIRECTION('',(0.,2.22044604925E-16,1.));
#1170 = ADVANCED_FACE('',(#1171),#1182,.F.);
#1171 = FACE_BOUND('',#1172,.F.);
#1172 = EDGE_LOOP('',(#1173,#1179,#1180,#1181));
#1173 = ORIENTED_EDGE('',*,*,#1174,.F.);
#1174 = EDGE_CURVE('',#1125,#1151,#1175,.T.);
#1175 = LINE('',#1176,#1177);
#1176 = CARTESIAN_POINT('',(-15.,-15.1,0.));
#1177 = VECTOR('',#1178,1.);
#1178 = DIRECTION('',(0.,0.,1.));
#1179 = ORIENTED_EDGE('',*,*,#1133,.T.);
#1180 = ORIENTED_EDGE('',*,*,#177,.T.);
#1181 = ORIENTED_EDGE('',*,*,#1150,.T.);
#1182 = PLANE('',#1183);
#1183 = AXIS2_PLACEMENT_3D('',#1184,#1185,#1186);
#1184 = CARTESIAN_POINT('',(15.,-15.1,0.));
#1185 = DIRECTION('',(0.,-1.,0.));
#1186 = DIRECTION('',(-1.,0.,0.));
#1187 = ADVANCED_FACE('',(#1188),#1222,.T.);
#1188 = FACE_BOUND('',#1189,.T.);
#1189 = EDGE_LOOP('',(#1190,#1191,#1192,#1193,#1194,#1195,#1196,#1197,
    #1198,#1199,#1200,#1201,#1202,#1203,#1204,#1205,#1206,#1207,#1208,
    #1209,#1210,#1211,#1212,#1213,#1214,#1215,#1216,#1217,#1218,#1219,
    #1220,#1221));
#1190 = ORIENTED_EDGE('',*,*,#319,.F.);
#1191 = ORIENTED_EDGE('',*,*,#377,.F.);
#1192 = ORIENTED_EDGE('',*,*,#424,.F.);
#1193 = ORIENTED_EDGE('',*,*,#475,.F.);
#1194 = ORIENTED_EDGE('',*,*,#531,.F.);
#1195 = ORIENTED_EDGE('',*,*,#573,.F.);
#1196 = ORIENTED_EDGE('',*,*,#642,.T.);
#1197 = ORIENTED_EDGE('',*,*,#735,.T.);
#1198 = ORIENTED_EDGE('',*,*,#793,.T.);
#1199 = ORIENTED_EDGE('',*,*,#833,.T.);
#1200 = ORIENTED_EDGE('',*,*,#891,.F.);
#1201 = ORIENTED_EDGE('',*,*,#931,.F.);
#1202 = ORIENTED_EDGE('',*,*,#989,.F.);
#1203 = ORIENTED_EDGE('',*,*,#1031,.F.);
#1204 = ORIENTED_EDGE('',*,*,#1102,.F.);
#1205 = ORIENTED_EDGE('',*,*,#1158,.T.);
#1206 = ORIENTED_EDGE('',*,*,#1174,.F.);
#1207 = ORIENTED_EDGE('',*,*,#1124,.F.);
#1208 = ORIENTED_EDGE('',*,*,#1056,.F.);
#1209 = ORIENTED_EDGE('',*,*,#1006,.T.);
#1210 = ORIENTED_EDGE('',*,*,#965,.F.);
#1211 = ORIENTED_EDGE('',*,*,#915,.F.);
#1212 = ORIENTED_EDGE('',*,*,#860,.F.);
#1213 = ORIENTED_EDGE('',*,*,#808,.T.);
#1214 = ORIENTED_EDGE('',*,*,#760,.T.);
#1215 = ORIENTED_EDGE('',*,*,#710,.T.);
#1216 = ORIENTED_EDGE('',*,*,#598,.F.);
#1217 = ORIENTED_EDGE('',*,*,#546,.F.);
#1218 = ORIENTED_EDGE('',*,*,#507,.T.);
#1219 = ORIENTED_EDGE('',*,*,#448,.F.);
#1220 = ORIENTED_EDGE('',*,*,#400,.T.);
#1221 = ORIENTED_EDGE('',*,*,#350,.F.);
#1222 = PLANE('',#1223);
#1223 = AXIS2_PLACEMENT_3D('',#1224,#1225,#1226);
#1224 = CARTESIAN_POINT('',(-15.,3.E-02,9.505402298851));
#1225 = DIRECTION('',(-1.,-0.,-0.));
#1226 = DIRECTION('',(0.,0.,-1.));
#1227 = ADVANCED_FACE('',(#1228),#1238,.F.);
#1228 = FACE_BOUND('',#1229,.F.);
#1229 = EDGE_LOOP('',(#1230,#1231,#1236,#1237));
#1230 = ORIENTED_EDGE('',*,*,#693,.F.);
#1231 = ORIENTED_EDGE('',*,*,#1232,.T.);
#1232 = EDGE_CURVE('',#694,#615,#1233,.T.);
#1233 = B_SPLINE_CURVE_WITH_KNOTS('',1,(#1234,#1235),.UNSPECIFIED.,.F.,
  .F.,(2,2),(-10.8,0.),.PIECEWISE_BEZIER_KNOTS.);
#1234 = CARTESIAN_POINT('',(-6.,11.,-1.7763568394E-15));
#1235 = CARTESIAN_POINT('',(-6.,11.,10.8));
#1236 = ORIENTED_EDGE('',*,*,#614,.F.);
#1237 = ORIENTED_EDGE('',*,*,#1232,.F.);
#1238 = CYLINDRICAL_SURFACE('',#1239,2.);
#1239 = AXIS2_PLACEMENT_3D('',#1240,#1241,#1242);
#1240 = CARTESIAN_POINT('',(-8.,11.,10.8));
#1241 = DIRECTION('',(0.,0.,1.));
#1242 = DIRECTION('',(1.,0.,0.));
#1243 = ADVANCED_FACE('',(#1244),#1254,.F.);
#1244 = FACE_BOUND('',#1245,.F.);
#1245 = EDGE_LOOP('',(#1246,#1247,#1252,#1253));
#1246 = ORIENTED_EDGE('',*,*,#682,.F.);
#1247 = ORIENTED_EDGE('',*,*,#1248,.T.);
#1248 = EDGE_CURVE('',#683,#626,#1249,.T.);
#1249 = B_SPLINE_CURVE_WITH_KNOTS('',1,(#1250,#1251),.UNSPECIFIED.,.F.,
  .F.,(2,2),(-10.8,0.),.PIECEWISE_BEZIER_KNOTS.);
#1250 = CARTESIAN_POINT('',(10.,11.,-1.7763568394E-15));
#1251 = CARTESIAN_POINT('',(10.,11.,10.8));
#1252 = ORIENTED_EDGE('',*,*,#625,.F.);
#1253 = ORIENTED_EDGE('',*,*,#1248,.F.);
#1254 = CYLINDRICAL_SURFACE('',#1255,2.);
#1255 = AXIS2_PLACEMENT_3D('',#1256,#1257,#1258);
#1256 = CARTESIAN_POINT('',(8.,11.,10.8));
#1257 = DIRECTION('',(0.,0.,1.));
#1258 = DIRECTION('',(1.,0.,0.));
#1259 = ADVANCED_FACE('',(#1260),#1270,.F.);
#1260 = FACE_BOUND('',#1261,.F.);
#1261 = EDGE_LOOP('',(#1262,#1263,#1268,#1269));
#1262 = ORIENTED_EDGE('',*,*,#660,.F.);
#1263 = ORIENTED_EDGE('',*,*,#1264,.F.);
#1264 = EDGE_CURVE('',#1084,#661,#1265,.T.);
#1265 = B_SPLINE_CURVE_WITH_KNOTS('',1,(#1266,#1267),.UNSPECIFIED.,.F.,
  .F.,(2,2),(-10.8,0.),.PIECEWISE_BEZIER_KNOTS.);
#1266 = CARTESIAN_POINT('',(10.,-11.,10.8));
#1267 = CARTESIAN_POINT('',(10.,-11.,1.347111479062E-15));
#1268 = ORIENTED_EDGE('',*,*,#1083,.F.);
#1269 = ORIENTED_EDGE('',*,*,#1264,.T.);
#1270 = CYLINDRICAL_SURFACE('',#1271,2.);
#1271 = AXIS2_PLACEMENT_3D('',#1272,#1273,#1274);
#1272 = CARTESIAN_POINT('',(8.,-11.,1.347111479062E-15));
#1273 = DIRECTION('',(0.,-1.224646799147E-16,-1.));
#1274 = DIRECTION('',(1.,0.,0.));
#1275 = ADVANCED_FACE('',(#1276),#1286,.F.);
#1276 = FACE_BOUND('',#1277,.F.);
#1277 = EDGE_LOOP('',(#1278,#1279,#1284,#1285));
#1278 = ORIENTED_EDGE('',*,*,#671,.F.);
#1279 = ORIENTED_EDGE('',*,*,#1280,.F.);
#1280 = EDGE_CURVE('',#1073,#672,#1281,.T.);
#1281 = B_SPLINE_CURVE_WITH_KNOTS('',1,(#1282,#1283),.UNSPECIFIED.,.F.,
  .F.,(2,2),(-10.8,0.),.PIECEWISE_BEZIER_KNOTS.);
#1282 = CARTESIAN_POINT('',(-6.,-11.,10.8));
#1283 = CARTESIAN_POINT('',(-6.,-11.,1.347111479062E-15));
#1284 = ORIENTED_EDGE('',*,*,#1072,.F.);
#1285 = ORIENTED_EDGE('',*,*,#1280,.T.);
#1286 = CYLINDRICAL_SURFACE('',#1287,2.);
#1287 = AXIS2_PLACEMENT_3D('',#1288,#1289,#1290);
#1288 = CARTESIAN_POINT('',(-8.,-11.,1.347111479062E-15));
#1289 = DIRECTION('',(0.,-1.224646799147E-16,-1.));
#1290 = DIRECTION('',(1.,0.,0.));
#1291 = ( GEOMETRIC_REPRESENTATION_CONTEXT(3) 
GLOBAL_UNCERTAINTY_ASSIGNED_CONTEXT((#1295)) 
GLOBAL_UNIT_ASSIGNED_CONTEXT((#1292,#1293,#1294)) REPRESENTATION_CONTEXT
('Context #1','3D Context with UNIT and UNCERTAINTY') );
#1292 = ( LENGTH_UNIT() NAMED_UNIT(*) SI_UNIT(.MILLI.,.METRE.) );
#1293 = ( NAMED_UNIT(*) PLANE_ANGLE_UNIT() SI_UNIT($,.RADIAN.) );
#1294 = ( NAMED_UNIT(*) SI_UNIT($,.STERADIAN.) SOLID_ANGLE_UNIT() );
#1295 = UNCERTAINTY_MEASURE_WITH_UNIT(LENGTH_MEASURE(1.E-06),#1292,
  'distance_accuracy_value','confusion accuracy');
#1296 = CONTEXT_DEPENDENT_SHAPE_REPRESENTATION(#1297,#1299);
#1297 = ( REPRESENTATION_RELATIONSHIP('','',#32,#10) 
REPRESENTATION_RELATIONSHIP_WITH_TRANSFORMATION(#1298) 
SHAPE_REPRESENTATION_RELATIONSHIP() );
#1298 = ITEM_DEFINED_TRANSFORMATION('','',#11,#15);
#1299 = PRODUCT_DEFINITION_SHAPE('Placement','Placement of an item',
  #1300);
#1300 = NEXT_ASSEMBLY_USAGE_OCCURRENCE('1','Body005','',#5,#27,$);
#1301 = PRODUCT_RELATED_PRODUCT_CATEGORY('part',$,(#29));
#1302 = MECHANICAL_DESIGN_GEOMETRIC_PRESENTATION_REPRESENTATION('',(
    #1303),#1291);
#1303 = STYLED_ITEM('color',(#1304),#33);
#1304 = PRESENTATION_STYLE_ASSIGNMENT((#1305,#1311));
#1305 = SURFACE_STYLE_USAGE(.BOTH.,#1306);
#1306 = SURFACE_SIDE_STYLE('',(#1307));
#1307 = SURFACE_STYLE_FILL_AREA(#1308);
#1308 = FILL_AREA_STYLE('',(#1309));
#1309 = FILL_AREA_STYLE_COLOUR('',#1310);
#1310 = COLOUR_RGB('',0.447058818107,0.474509808674,0.501960817233);
#1311 = CURVE_STYLE('',#1312,POSITIVE_LENGTH_MEASURE(0.1),#1313);
#1312 = DRAUGHTING_PRE_DEFINED_CURVE_FONT('continuous');
#1313 = COLOUR_RGB('',9.803921802644E-02,9.803921802644E-02,
  9.803921802644E-02);
ENDSEC;
END-ISO-10303-21;
